<?xml version="1.0" encoding="utf-8"?>
<!-- Generator: Adobe Illustrator 21.0.0, SVG Export Plug-In . SVG Version: 6.00 Build 0)  -->
<svg version="1.1" id="Слой_1" xmlns:sketch="http://www.bohemiancoding.com/sketch/ns"
	 xmlns="http://www.w3.org/2000/svg" xmlns:xlink="http://www.w3.org/1999/xlink" x="0px" y="0px" viewBox="0 0 25 25"
	 style="enable-background:new 0 0 25 25;" xml:space="preserve">
<style type="text/css">
	.st0{fill:#FFFFFF;}
	.st1{fill:none;stroke:#5E6971;}
	.st2{fill:#5E6971;}
</style>
<title>Imported Layers</title>
<desc>Created with Sketch.</desc>
<g id="Page-1" sketch:type="MSPage">
	<g id="Imported-Layers" transform="translate(0.000000, 1.000000)" sketch:type="MSLayerGroup">
		<path id="Fill-1" sketch:type="MSShapeGroup" class="st0" d="M2.5-0.5c0,0-2,0-2,2v20c0,0,0,2,2,2h20c0,0,2,0,2-2v-20c0,0,0-2-2-2
			H2.5L2.5-0.5z"/>
		<path id="Stroke-2" sketch:type="MSShapeGroup" class="st1" d="M2.5-0.5c0,0-2,0-2,2v20c0,0,0,2,2,2h20c0,0,2,0,2-2v-20
			c0,0,0-2-2-2H2.5L2.5-0.5z"/>
		<path id="Fill-3" sketch:type="MSShapeGroup" class="st2" d="M17.4,9.5c0,0.3-0.1,0.6-0.4,0.9c-0.2,0.2-0.5,0.4-0.8,0.4
			c-0.3,0-0.6-0.1-0.9-0.4s-0.4-0.5-0.4-0.9c0-0.3,0.1-0.6,0.4-0.8c0.2-0.2,0.5-0.3,0.9-0.3c0.3,0,0.6,0.1,0.8,0.3
			C17.2,8.9,17.4,9.2,17.4,9.5 M8.1,14.6L9,14c0.8,1.4,1.9,2.2,3.5,2.2c1.5,0,2.7-0.7,3.5-2.2l0.9,0.5c-1,1.9-2.5,2.9-4.4,2.9
			c-1,0-1.8-0.2-2.5-0.7C9.2,16.2,8.6,15.5,8.1,14.6 M10.1,9.5c0,0.3-0.1,0.6-0.4,0.9s-0.5,0.4-0.9,0.4c-0.3,0-0.6-0.1-0.8-0.4
			c-0.2-0.2-0.4-0.5-0.4-0.9c0-0.3,0.1-0.6,0.4-0.8c0.2-0.2,0.5-0.3,0.8-0.3c0.3,0,0.6,0.1,0.9,0.3C9.9,8.9,10.1,9.2,10.1,9.5
			 M20.6,11.5c0-2.3-0.8-4.2-2.4-5.8s-3.5-2.4-5.8-2.4c-2.2,0-4.2,0.8-5.7,2.4s-2.4,3.5-2.4,5.8c0,2.2,0.8,4.2,2.4,5.7
			s3.5,2.4,5.7,2.4c2.3,0,4.2-0.8,5.8-2.4S20.6,13.8,20.6,11.5 M22,11.5c0,2.6-0.9,4.9-2.8,6.7c-1.9,1.9-4.1,2.8-6.7,2.8
			c-2.6,0-4.9-0.9-6.7-2.8C3.9,16.4,3,14.1,3,11.5c0-2.6,0.9-4.9,2.8-6.7C7.6,2.9,9.9,2,12.5,2c2.6,0,4.9,0.9,6.7,2.8
			C21.1,6.6,22,8.9,22,11.5"/>
	</g>
</g>
</svg>
