<?xml version="1.0" encoding="utf-8"?>
<!-- Generator: Adobe Illustrator 16.0.0, SVG Export Plug-In . SVG Version: 6.00 Build 0)  -->
<!DOCTYPE svg PUBLIC "-//W3C//DTD SVG 1.1//EN" "http://www.w3.org/Graphics/SVG/1.1/DTD/svg11.dtd">
<svg version="1.1" id="Слой_1" xmlns:sketch="http://www.bohemiancoding.com/sketch/ns"
	 xmlns="http://www.w3.org/2000/svg" xmlns:xlink="http://www.w3.org/1999/xlink" x="0px" y="0px" width="51.193px"
	 height="44.247px" viewBox="0 0 51.193 44.247" enable-background="new 0 0 51.193 44.247" xml:space="preserve">
<title>shishka_icon</title>
<desc>Created with Sketch.</desc>
<g id="Page-1" sketch:type="MSPage">
	<g id="sait_NAI" transform="translate(-2.000000, -260.000000)" sketch:type="MSLayerGroup">
		<path id="shishka_icon" sketch:type="MSShapeGroup" fill="#fff" d="M53.166,294.294c-0.058-0.155-0.19-0.16-0.323-0.158
			c-0.144,0.003-0.289-0.003-0.43,0.023c-0.402,0.072-0.803,0.049-1.21,0.014c-0.414-0.038-0.837-0.062-1.249-0.027
			c-0.676,0.057-1.345,0.17-2.019,0.258c-0.086,0.012-0.172,0.016-0.274,0.024c-0.017-0.084-0.021-0.147-0.042-0.208
			c-0.071-0.219-0.198-0.29-0.417-0.225c-0.072,0.021-0.162,0.053-0.202,0.109c-0.129,0.186-0.317,0.203-0.513,0.234
			c-0.179,0.031-0.354,0.084-0.532,0.125c-0.254,0.057-0.506,0.146-0.764,0.162c-1.614,0.104-3.23,0.205-4.848,0.272
			c-0.789,0.033-1.582-0.013-2.359-0.022c-0.157-0.478-0.034-0.525,0.266-0.688c0.113-0.062,0.231-0.116,0.354-0.159
			c1.021-0.357,2.062-0.658,3.013-1.195c0.671-0.379,1.315-0.795,1.889-1.315c0.154-0.14,0.313-0.274,0.473-0.409
			c0.24-0.203,0.49-0.392,0.718-0.609c0.271-0.262,0.528-0.539,0.771-0.826c0.08-0.09,0.133-0.229,0.139-0.35
			c0.015-0.199-0.178-0.299-0.35-0.197c-0.111,0.068-0.209,0.16-0.311,0.24c-0.441,0.348-0.863,0.721-1.325,1.035
			c-0.638,0.434-1.299,0.832-1.961,1.229c-0.346,0.205-0.704,0.396-1.076,0.555c-0.688,0.292-1.351,0.627-1.942,1.087
			c-0.442,0.345-0.885,0.692-1.324,1.04c-0.07,0.057-0.158,0.107-0.2,0.186c-0.181,0.328-0.468,0.358-0.802,0.354
			c-1.305-0.015-2.609-0.017-3.912,0.093c-0.325,0.026-0.654-0.018-0.979-0.009c-0.429,0.009-0.857,0.028-1.285,0.06
			c-0.271,0.021-0.543,0.072-0.813,0.096c-0.136,0.012-0.283,0.033-0.409-0.09c0.302-0.285,0.521-0.604,0.521-0.998
			c0.168-0.096,0.312-0.178,0.459-0.254c0.103-0.055,0.207-0.112,0.316-0.151c0.609-0.226,1.227-0.438,1.834-0.67
			c1.073-0.408,2.131-0.849,3.145-1.39c0.565-0.303,1.143-0.582,1.685-0.92c0.887-0.554,1.77-1.115,2.618-1.728
			c0.708-0.511,1.354-1.104,2.104-1.565c0.162-0.1,0.306-0.24,0.438-0.384c0.193-0.206,0.381-0.426,0.555-0.651
			c0.175-0.227,0.337-0.463,0.491-0.701c0.047-0.075,0.087-0.174,0.081-0.256c-0.006-0.096-0.046-0.207-0.108-0.272
			c-0.092-0.093-0.197-0.015-0.279,0.05c-0.443,0.344-0.889,0.688-1.326,1.035c-0.637,0.503-1.25,1.029-1.901,1.508
			c-0.578,0.428-1.211,0.78-1.787,1.206c-1.252,0.923-2.66,1.544-4.057,2.197c-0.851,0.399-1.707,0.786-2.482,1.327
			c-0.279,0.195-0.562,0.382-0.847,0.57c-0.073,0.049-0.153,0.092-0.229,0.137c0.071-0.139,0.162-0.252,0.273-0.336
			c0.771-0.582,1.532-1.182,2.327-1.729c1.314-0.904,2.601-1.846,3.861-2.82c0.32-0.248,0.625-0.514,0.937-0.771
			c0.505-0.415,1.01-0.828,1.514-1.243c0.594-0.487,1.199-0.966,1.775-1.476c0.421-0.373,0.781-0.807,1.062-1.297
			c0.179-0.311,0.146-0.457-0.14-0.713c-0.062,0.035-0.136,0.064-0.194,0.111c-0.442,0.365-0.912,0.705-1.318,1.105
			c-0.928,0.91-1.979,1.666-3.021,2.426c-1.406,1.021-2.849,1.994-4.262,3.007c-0.41,0.296-0.796,0.638-1.148,1.003
			c-0.498,0.514-0.951,1.071-1.43,1.604c-0.574,0.641-1.115,1.31-1.791,1.854c-0.232,0.187-0.451,0.401-0.621,0.646
			c-0.192,0.273-0.431,0.397-0.75,0.418c-0.439,0.029-0.879,0.063-1.32,0.098c-0.961-0.236-1.324-0.092-1.551-0.119
			c-0.715-0.085-1.425-0.193-2.139-0.287c-0.275-0.035-0.527-0.126-0.753-0.265c0-0.05-0.01-0.078,0-0.101
			c0.02-0.047,0.043-0.094,0.07-0.138c0.245-0.375,0.551-0.692,0.924-0.944c0.552-0.373,1.072-0.799,1.651-1.119
			c0.913-0.506,1.876-0.918,2.794-1.414c0.94-0.51,1.866-1.049,2.772-1.621c0.719-0.452,1.399-0.963,2.089-1.459
			c0.423-0.305,0.834-0.631,1.241-0.955c0.215-0.172,0.42-0.354,0.617-0.543c0.571-0.553,1.146-1.104,1.705-1.67
			c0.493-0.5,0.974-1.014,1.452-1.53c0.104-0.11,0.203-0.246,0.25-0.388c0.031-0.092-0.012-0.235-0.07-0.32
			c-0.072-0.104-0.2-0.096-0.321-0.04c-0.32,0.147-0.627,0.304-0.883,0.562c-0.402,0.408-0.831,0.793-1.259,1.176
			c-0.448,0.398-0.906,0.785-1.366,1.173c-0.431,0.358-0.853,0.733-1.306,1.062c-1.693,1.231-3.477,2.326-5.256,3.424
			c-0.045,0.025-0.092,0.051-0.137,0.076c-0.577,0.332-1.154,0.664-1.73,0.998c-0.085,0.047-0.167,0.098-0.25,0.147
			c-0.027-0.013-0.053-0.024-0.079-0.038c0.034-0.096,0.051-0.207,0.109-0.286c0.155-0.205,0.303-0.433,0.501-0.588
			c0.266-0.207,0.57-0.367,0.868-0.53c0.595-0.328,1.199-0.637,1.793-0.967c0.833-0.461,1.664-0.932,2.487-1.409
			c0.261-0.151,0.513-0.319,0.746-0.505c0.543-0.43,1.085-0.861,1.603-1.318c0.498-0.438,0.974-0.906,1.442-1.375
			c0.202-0.201,0.174-0.306-0.094-0.554c-0.065,0.054-0.133,0.113-0.199,0.165c-0.145,0.109-0.287,0.221-0.438,0.321
			c-0.322,0.217-0.653,0.426-0.979,0.64c-0.827,0.551-1.641,1.123-2.481,1.646c-0.586,0.367-1.211,0.671-1.823,0.994
			c-0.646,0.34-1.298,0.67-1.95,1c-0.184,0.092-0.376,0.16-0.567,0.24c-0.093-0.197-0.047-0.357,0.04-0.504
			c0.139-0.238,0.273-0.479,0.436-0.695c0.099-0.131,0.231-0.258,0.378-0.326c0.899-0.412,1.81-0.803,2.713-1.211
			c0.533-0.24,1.088-0.455,1.587-0.758c1.455-0.877,2.897-1.779,4.235-2.83c0.336-0.263,0.639-0.577,0.923-0.898
			c0.221-0.247,0.313-0.57,0.345-0.9c0.007-0.07-0.053-0.183-0.112-0.215c-0.062-0.031-0.182-0.012-0.24,0.032
			c-0.371,0.285-0.729,0.588-1.1,0.876c-0.162,0.127-0.339,0.242-0.517,0.347c-0.247,0.147-0.5,0.284-0.754,0.419
			c-0.676,0.365-1.297,0.834-2.062,1.022c-0.023,0.007-0.047,0.021-0.07,0.031c-1.151,0.58-2.306,1.164-3.461,1.738
			c-0.238,0.121-0.494,0.207-0.742,0.31c-0.017-0.021-0.034-0.043-0.053-0.063c0.374-0.468,0.728-0.953,1.126-1.396
			c0.837-0.93,1.698-1.837,2.548-2.754c0.254-0.274,0.479-0.571,0.789-0.798c0.323-0.239,0.613-0.522,0.854-0.853
			c0.099-0.134,0.24-0.238,0.369-0.348c0.367-0.319,0.648-0.708,0.896-1.125c0.064-0.11,0.103-0.243,0.119-0.37
			c0.01-0.074-0.031-0.173-0.084-0.228c-0.025-0.025-0.152,0.012-0.201,0.057c-0.461,0.421-0.947,0.824-1.365,1.288
			c-0.305,0.341-0.674,0.6-1,0.914c-0.192,0.189-0.424,0.342-0.645,0.503c-0.728,0.537-1.361,1.179-1.963,1.847
			c-0.6,0.666-1.154,1.375-1.71,2.081c-0.367,0.467-0.706,0.96-1.071,1.465c-0.099,0.615-0.254,1.228-0.474,1.829
			c-0.836,2.293-2.452,4.113-4.443,5.271c-0.593,0.418-1.226,0.779-1.891,1.066c-0.207,0.102-0.415,0.199-0.628,0.287
			c-0.639,0.32-1.308,0.581-1.999,0.768c-0.063,0.039-0.141,0.058-0.227,0.059c-1.305,0.318-2.677,0.385-4.038,0.162
			c-0.091,0.062-0.183,0.121-0.28,0.17c-0.125,0.152-0.244,0.294-0.354,0.438c-0.255,0.338-0.439,0.709-0.446,1.146
			c-0.009,0.561,0.061,0.66,0.581,0.865c0.074,0.029,0.146,0.059,0.219,0.086c0.3,0.117,0.604,0.166,0.921,0.084
			c0.1-0.024,0.207-0.028,0.311-0.037c1.471-0.105,9.162-0.459,10.423-0.561c0.38-0.031,0.686,0.049,0.961,0.315
			c0.251,0.243,0.531,0.461,0.808,0.679c0.225,0.178,0.447,0.364,0.696,0.5c0.808,0.441,1.495,1.029,2.158,1.665
			c1.201,1.155,2.441,2.271,3.655,3.413c1.366,1.282,1.239,0.777-0.735-1.055c-0.78-0.729-1.573-1.442-2.35-2.178
			c-0.385-0.363-0.739-0.762-1.091-1.16c0.378,0.103,0.688,0.32,0.986,0.547c0.733,0.562,1.484,1.107,2.178,1.718
			c0.668,0.588,1.372,1.118,2.113,1.603c0.088,0.058,0.18,0.114,0.246,0.19c0.393,0.433,0.887,0.724,1.361,1.043
			c0.541,0.362,1.217,0.524-0.822-0.95c-0.6-0.434-1.143-0.947-1.793-1.316c-0.135-0.076-0.252-0.187-0.371-0.286
			c-0.854-0.722-1.709-1.446-2.562-2.173c-0.048-0.039-0.087-0.09-0.129-0.137c0.331,0.041,0.631,0.125,0.93,0.213
			c1.454,0.432,2.799,1.086,3.984,2.037c6.59,4.278,5.811,3.014,4.85,2.293c-1.291-0.972-2.587-1.937-3.884-2.898
			c-1.975-1.463-4.161-2.428-6.587-2.85c-0.847-0.146-1.547-0.59-2.184-1.244c0.264-0.02,0.478-0.035,0.693-0.049
			c0.532-0.041,1.066-0.074,1.6-0.119c0.715-0.062,1.429-0.131,2.142-0.201c0.14-0.014,0.234,0.033,0.342,0.135
			c0.243,0.234,0.513,0.441,0.778,0.648c0.181,0.143,0.399,0.215,0.626,0.146c0.199-0.062,0.345,0.009,0.511,0.104
			c0.631,0.367,1.271,0.715,1.906,1.08c0.608,0.349,1.233,0.678,1.817,1.067c0.683,0.457,1.34,0.952,1.982,1.461
			c1.012,0.802,2.03,1.587,3.166,2.214c0.811,0.445,1.588,0.946,2.438,1.317c0.111,0.049,0.225,0.11,0.328,0.011
			c0.1-0.095,0.147-0.22,0.086-0.355c-0.037-0.082-0.09-0.157-0.146-0.227c-0.577-0.703-1.288-1.256-2.03-1.766
			c-0.934-0.643-1.9-1.238-2.841-1.871c-0.899-0.605-1.842-1.135-2.827-1.588c-0.652-0.301-1.301-0.609-1.951-0.916
			c-0.068-0.033-0.137-0.079-0.24-0.145c0.412-0.061,0.765-0.052,1.105,0.057c0.674,0.209,1.354,0.4,2.01,0.66
			c0.94,0.371,1.782,0.916,2.516,1.623c0.337,0.326,0.674,0.652,1.021,0.969c0.553,0.498,1.154,0.937,1.811,1.293
			c0.226,0.123,0.479,0.199,0.726,0.283c0.111,0.041,0.209,0.002,0.256-0.113c0.047-0.119,0.043-0.23-0.076-0.312
			c-0.021-0.014-0.049-0.021-0.067-0.037c-0.541-0.469-1.095-0.922-1.618-1.408c-0.504-0.471-0.981-0.973-1.463-1.467
			c-0.817-0.838-1.772-1.447-2.893-1.801c-1.396-0.439-2.812-0.705-4.28-0.631c-0.209,0.012-0.421,0.012-0.626-0.007
			c-0.213-0.021-0.235-0.06-0.271-0.351c0.128-0.006,0.257-0.015,0.384-0.02c0.679-0.021,1.357-0.061,2.037-0.062
			c0.533-0.004,1.07,0.014,1.604,0.062c0.677,0.062,1.351,0.105,2.031,0.061c0.834-0.06,1.67-0.078,2.504-0.107
			c0.481-0.018,0.896,0.109,1.195,0.533c0.099,0.142,0.271,0.242,0.428,0.326c0.15,0.084,0.326,0.105,0.471-0.041
			c0.154-0.158,0.181-0.371,0.064-0.576c-0.043-0.073-0.093-0.139-0.168-0.252c0.238-0.021,0.429-0.035,0.617-0.055
			c1.012-0.113,2.024-0.214,3.033-0.347c0.555-0.071,1.059,0.003,1.543,0.29c0.21,0.126,0.447,0.214,0.682,0.291
			c0.229,0.074,0.408,0.011,0.482-0.139c0.092-0.184,0.024-0.326-0.129-0.44c-0.011-0.008,0.001-0.044,0.002-0.078
			c0.075-0.006,0.151-0.017,0.229-0.021c0.586-0.034,1.174-0.062,1.761-0.104c0.573-0.044,1.137-0.159,1.661-0.411
			c0.141-0.066,0.277-0.146,0.402-0.24C53.186,294.647,53.225,294.457,53.166,294.294 M35.212,298.412
			c1.782,0.451,3.754,2.783,1.945,1.26c-0.523-0.44-1.097-0.791-1.701-1.1C35.391,298.539,35.333,298.492,35.212,298.412
			 M21.138,292.957c-0.057-0.135-0.157-0.197-0.245-0.102c-0.134,0.146,0.058,0.18,0.144,0.247
			c-0.108,0.194-0.197,0.382-0.313,0.552c-0.126,0.188-0.325,0.254-0.544,0.233c-0.189-0.019-0.295-0.151-0.361-0.317
			c-0.078-0.191-0.017-0.365,0.113-0.507c0.268-0.282,0.541-0.562,0.826-0.829c0.2-0.186,0.41-0.365,0.636-0.52
			c0.258-0.174,0.537-0.311,0.834-0.438C21.944,291.882,21.674,292.484,21.138,292.957 M31.002,292.011
			c0.046-0.082,0.087-0.165,0.138-0.243c0.504-0.739,1.414-0.771,0.099,0.149C31.175,291.96,31.111,292.003,31.002,292.011
			 M28.421,295.205c-0.098-0.016-0.191-0.028-0.331-0.051c0.146-0.457,0.432-0.705,0.773-0.9c0.055-0.03,0.152,0.013,0.249,0.021
			C29.018,294.72,28.567,294.83,28.421,295.205 M31.893,296.628c-0.021,0.041-0.105,0.078-0.156,0.074
			c-0.315-0.039-0.551-0.195-0.725-0.563c0.371,0.032,0.604,0.194,0.846,0.323C31.891,296.479,31.914,296.587,31.893,296.628
			 M38.988,293.583c0.157-0.127,0.302-0.289,0.479-0.379c0.558-0.281,1.133-0.528,1.689-0.81c0.385-0.192,0.757-0.414,1.125-0.636
			C42.973,291.341,41.158,293.18,38.988,293.583 M42.694,296.685c-0.338-0.104-0.541-0.258-0.715-0.511
			c0.312-0.044,0.481,0.155,0.678,0.284C42.688,296.48,42.675,296.565,42.694,296.685 M48.798,295.97
			c-0.293,0.007-0.453-0.104-0.619-0.241C48.459,295.64,48.459,295.64,48.798,295.97 M23.854,285.633
			c0.116-0.375,0.242-0.736,0.381-1.087c-0.016-0.166-0.029-0.334-0.032-0.5c-0.101,0.095-0.2,0.189-0.3,0.285
			c-0.089,0.084-0.165,0.178-0.25,0.265c-0.084,0.086-0.172,0.169-0.257,0.253c-0.014-0.012-0.026-0.021-0.04-0.034
			c0.181-0.247,0.36-0.497,0.548-0.754c-0.061-0.067-0.098-0.142-0.156-0.172c-0.125-0.065-0.135-0.175-0.177-0.291
			c-0.139-0.37-0.097-0.702,0.132-1.022c0.062-0.086,0.102-0.191,0.138-0.295c0.049-0.137,0.104-0.275,0.122-0.417
			c0.031-0.247-0.114-0.349-0.359-0.269c-0.039,0.013-0.076,0.033-0.108,0.047c-0.093-0.198-0.192-0.371-0.378-0.453
			c-0.192-0.086-0.244-0.241-0.221-0.416c0.038-0.275,0.089-0.551,0.163-0.817c0.108-0.378,0.192-0.75,0.121-1.147
			c-0.025-0.141-0.013-0.291-0.004-0.436c0.033-0.54,0.168-1.052,0.413-1.537c0.098-0.194,0.189-0.393,0.262-0.599
			c0.073-0.205,0.003-0.323-0.207-0.386c-0.179-0.054-0.347-0.054-0.517,0.067c-0.168,0.121-0.339,0.28-0.617,0.207
			c-0.004-0.124-0.02-0.243-0.01-0.359c0.03-0.339,0.062-0.678,0.107-1.014c0.042-0.313,0.107-0.622,0.151-0.935
			c0.045-0.328,0.021-0.38-0.276-0.496c-0.166-0.063-0.229-0.175-0.231-0.329c-0.002-0.206-0.008-0.416,0.025-0.618
			c0.107-0.683,0.23-1.364,0.354-2.045c0.069-0.383-0.184-0.678-0.55-0.579c-0.268,0.073-0.417,0.017-0.53-0.217
			c-0.025-0.053-0.072-0.098-0.108-0.145c-0.424-0.526-0.509-1.082-0.172-1.689c0.094-0.167,0.16-0.355,0.211-0.541
			c0.113-0.418-0.132-0.68-0.548-0.577c-0.182,0.045-0.351,0.149-0.525,0.229c-0.05,0.023-0.099,0.051-0.181,0.094
			c-0.065-0.152-0.132-0.279-0.178-0.413c-0.152-0.435-0.283-0.876-0.446-1.306c-0.084-0.224-0.192-0.448-0.338-0.635
			c-0.17-0.222-0.277-0.449-0.291-0.727c-0.022-0.55-0.252-1.012-0.652-1.378c-0.245-0.224-0.485-0.488-0.887-0.396
			c-0.06,0.013-0.155-0.055-0.211-0.11c-0.066-0.066-0.108-0.159-0.158-0.242c-0.404-0.653-0.938-1.14-1.698-1.34
			c-0.376-0.098-0.75-0.204-1.125-0.304c-0.472-0.126-0.866-0.038-1.135,0.405c-0.011,0.016-0.045,0.019-0.066,0.026
			c-0.503-0.122-0.503-0.122-0.797,0.075c-0.386-0.067-0.756-0.154-1.131,0.006c-0.145,0.062-0.304,0.086-0.453,0.135
			c-0.464,0.152-0.898,0.359-1.268,0.691c-0.115,0.104-0.253,0.187-0.386,0.272c-0.258,0.166-0.431,0.386-0.469,0.7
			c-0.008,0.07-0.026,0.138-0.034,0.176c-0.249,0.147-0.474,0.266-0.683,0.406c-0.223,0.15-0.442,0.306-0.638,0.485
			c-0.227,0.206-0.443,0.258-0.723,0.103c-0.224-0.123-0.402-0.043-0.481,0.197c-0.06,0.183-0.075,0.382-0.13,0.567
			c-0.087,0.29-0.142,0.602-0.293,0.856c-0.478,0.807-0.778,1.667-0.918,2.589c-0.052,0.341-0.153,0.478-0.559,0.462
			c-0.372-0.016-0.577,0.22-0.56,0.593c0.02,0.411,0.045,0.82,0.165,1.221c0.069,0.229,0.072,0.478,0.107,0.718
			c0.13,0.897-0.087,1.765-0.226,2.638c-0.019,0.116-0.075,0.23-0.129,0.338c-0.097,0.195-0.195,0.39-0.311,0.574
			C3.083,274.36,3,274.435,2.92,274.458c-0.188,0.053-0.318,0.161-0.431,0.313c-0.179,0.24-0.177,0.251,0.025,0.49
			c0.14,0.167,0.28,0.337,0.382,0.526c0.227,0.414,0.298,0.871,0.279,1.337c-0.013,0.328-0.056,0.654-0.089,0.98
			c-0.045,0.452-0.031,0.897,0.107,1.334c0.02,0.065,0.021,0.135,0.032,0.208c-0.069,0.021-0.114,0.033-0.16,0.047
			c-0.445,0.142-0.561,0.311-0.456,0.754c0.074,0.317,0.175,0.631,0.298,0.932c0.125,0.307,0.209,0.615,0.213,0.949
			c0.006,0.449,0.035,0.898,0.056,1.349c0.004,0.08,0.009,0.159,0.016,0.271c-0.132-0.014-0.236-0.025-0.343-0.033
			c-0.396-0.028-0.68,0.14-0.8,0.486c-0.104,0.301-0.071,0.533,0.342,0.777c0.232,0.136,0.436,0.312,0.57,0.551
			c0.328,0.58,0.648,1.164,0.976,1.744c0.396,0.7,0.865,1.331,1.527,1.82c0.465,0.346,0.877,0.759,1.222,1.238
			c0.555,0.773,1.272,1.321,2.233,1.514c0.27,0.055,0.532,0.15,0.796,0.234c0.65,0.033,1.293,0.16,1.902,0.391
			c0.196,0.076,0.391,0.158,0.584,0.242c0.791-0.135,1.631-0.068,2.435,0.104c0.047-0.002,0.092,0.009,0.137,0.028
			c0.067,0.017,0.134,0.035,0.199,0.052c0.293-0.237,0.675-0.181,0.997-0.349c0.021,0.109,0.025,0.209,0.062,0.293
			c0.096-0.03,0.193-0.055,0.292-0.078c-0.002-0.094-0.018-0.191-0.03-0.312c0.074-0.015,0.177-0.051,0.28-0.052
			c0.248-0.001,0.496,0.001,0.744,0.002c0.27-0.122,0.545-0.226,0.825-0.31c-0.224-0.018-0.447-0.037-0.67-0.082
			c0.2-0.116,0.407-0.205,0.614-0.297c0.826-0.359,1.605-0.799,2.29-1.391c0.322-0.279,0.644-0.557,0.974-0.826
			c0.253-0.205,0.435-0.449,0.514-0.771c0.021-0.091,0.06-0.19,0.122-0.259c0.53-0.572,0.905-1.221,1.015-2.008
			c0.011-0.078,0.053-0.16,0.106-0.221C23.354,286.166,23.605,285.899,23.854,285.633 M21.328,287.574
			c0.311-0.428,0.474-0.928,0.583-1.44c0.086-0.409,0.247-0.786,0.478-1.13c0.182-0.272,0.422-0.461,0.793-0.477
			c-0.002,0.161-0.086,0.264-0.154,0.369c-0.227,0.35-0.32,0.725-0.298,1.141c0.038,0.687-0.095,1.334-0.52,1.891
			c-0.16,0.209-0.361,0.385-0.571,0.605c-0.119-0.121-0.185-0.188-0.253-0.256C21.168,288.064,21.124,287.854,21.328,287.574
			 M20.592,287.953c-0.181,0.117-0.35,0.265-0.501,0.422c-0.829,0.857-1.836,1.025-2.947,0.752
			c-0.304-0.073-0.598-0.199-0.883-0.332c-0.474-0.217-0.946-0.438-1.474-0.495c-0.033-0.005-0.062-0.034-0.108-0.06
			c-0.012-0.136,0.056-0.222,0.169-0.285c0.168-0.098,0.328-0.209,0.502-0.293c0.708-0.34,1.422-0.672,2.13-1.012
			c0.567-0.271,1.111-0.586,1.577-1.017c0.162-0.149,0.355-0.208,0.57-0.171c0.132,0.023,0.261,0.062,0.39,0.094
			c0.487,0.119,0.979,0.186,1.48,0.117c0.067-0.01,0.141,0.005,0.25,0.01c-0.014,0.119-0.008,0.229-0.041,0.326
			c-0.12,0.354-0.241,0.713-0.386,1.057C21.166,287.43,20.931,287.732,20.592,287.953 M8.563,272.142
			c0.215-0.099,0.444-0.202,0.672-0.31c0.82-0.386,1.647-0.758,2.458-1.166c1.191-0.601,2.451-0.716,3.752-0.579
			c0.409,0.044,0.816,0.114,1.226,0.176c0.825,0.127,1.572,0.474,2.313,0.837c0.073,0.037,0.144,0.088,0.209,0.14
			c0.036,0.029,0.059,0.074,0.099,0.126c-0.046,0.059-0.079,0.126-0.133,0.165c-0.496,0.369-0.992,0.737-1.497,1.095
			c-0.115,0.082-0.255,0.148-0.393,0.177c-0.356,0.075-0.601,0.295-0.825,0.557c-0.213,0.248-0.432,0.491-0.659,0.723
			c-0.081,0.084-0.192,0.159-0.304,0.192c-0.65,0.188-1.305,0.387-1.982,0.104c-0.089-0.036-0.187-0.062-0.281-0.07
			c-0.594-0.057-1.113-0.314-1.627-0.591c-0.703-0.378-1.41-0.751-2.124-1.107c-0.214-0.104-0.462-0.138-0.693-0.213
			C8.668,272.363,8.519,272.35,8.563,272.142 M8.65,273.11c0.515-0.187,1.002-0.126,1.476,0.118
			c0.419,0.216,0.839,0.435,1.245,0.672c0.952,0.557,1.959,0.954,3.051,1.134c0.342,0.056,0.681,0.131,1.078,0.063
			c-0.055,0.084-0.073,0.148-0.114,0.171c-0.353,0.194-0.671,0.429-0.962,0.709c-0.228,0.219-0.501,0.391-0.819,0.45
			c-0.252,0.046-0.456,0.171-0.631,0.339c-0.219,0.21-0.479,0.321-0.766,0.393c-0.61,0.154-1.224,0.296-1.828,0.471
			c-0.404,0.117-0.756,0.077-1.099-0.173c-0.435-0.314-0.847-0.642-1.173-1.077c-0.611-0.815-1.44-1.316-2.414-1.587
			c-0.198-0.056-0.4-0.101-0.598-0.159c-0.09-0.027-0.171-0.075-0.286-0.125c0.133-0.443,0.417-0.678,0.779-0.814
			c0.306-0.113,0.623-0.211,0.943-0.267c0.486-0.086,0.983-0.128,1.475-0.196C8.222,273.203,8.447,273.183,8.65,273.11
			 M17.042,275.21c0.363-0.203,0.756-0.271,1.16-0.149c0.157,0.047,0.313,0.131,0.44,0.236c0.204,0.17,0.394,0.36,0.57,0.559
			c0.284,0.322,0.637,0.514,1.049,0.615c0.045,0.012,0.087,0.035,0.166,0.066c-0.019,0.076-0.022,0.125-0.042,0.166
			c-0.468,0.972-0.899,1.961-1.507,2.859c-0.107,0.159-0.239,0.262-0.424,0.318c-0.436,0.132-0.859,0.125-1.281-0.053
			c-0.474-0.2-0.895-0.484-1.284-0.814c-0.373-0.314-0.765-0.591-1.221-0.776c-0.307-0.125-0.562-0.336-0.792-0.569
			c-0.33-0.336-0.317-0.691,0.074-0.952c0.44-0.295,0.878-0.612,1.39-0.78C15.929,275.745,16.501,275.514,17.042,275.21
			 M17.384,280.513c-0.395,0.326-0.737,0.697-1.021,1.125c-0.071,0.106-0.233,0.159-0.362,0.215
			c-0.266,0.116-0.533,0.227-0.805,0.322c-0.204,0.072-0.414,0.135-0.627,0.174c-0.256,0.046-0.285,0.014-0.35-0.238
			c-0.014-0.056-0.025-0.113-0.043-0.188c-0.324,0.074-0.063,0.383-0.274,0.52c-0.766,0.067-1.554,0.027-2.269-0.422
			c-0.254-0.161-0.497-0.342-0.748-0.51c-0.19-0.127-0.386-0.247-0.58-0.37c-0.069-0.046-0.144-0.088-0.212-0.137
			c-0.246-0.175-0.486-0.361-0.738-0.526c-0.258-0.171-0.474-0.371-0.604-0.659c-0.13-0.289-0.066-0.483,0.22-0.619
			c0.502-0.239,0.999-0.49,1.508-0.714c0.39-0.171,0.763-0.366,1.123-0.589c0.417-0.257,0.868-0.317,1.321-0.108
			c0.295,0.137,0.598,0.281,0.847,0.484c0.572,0.463,1.208,0.799,1.873,1.099c0.273,0.124,0.524,0.295,0.787,0.442
			c0.221,0.124,0.437,0.255,0.663,0.364C17.225,280.242,17.363,280.287,17.384,280.513 M7.421,283.814
			c-0.282-0.085-0.522-0.246-0.722-0.471c-0.605-0.678-1.088-1.424-1.397-2.281c-0.012-0.034-0.033-0.065-0.043-0.099
			c-0.135-0.471-0.074-0.586,0.398-0.733c0.463-0.143,0.927-0.282,1.39-0.424c0.218-0.067,0.432-0.046,0.647,0.012
			c0.451,0.12,0.852,0.348,1.225,0.621c0.752,0.55,1.497,1.111,2.243,1.67c0.352,0.266,0.74,0.459,1.146,0.621
			c0.129,0.053,0.254,0.117,0.402,0.188c-0.054,0.084-0.062,0.113-0.079,0.121c-0.452,0.205-0.904,0.41-1.358,0.606
			c-0.278,0.124-0.568,0.194-0.878,0.218c-0.213,0.016-0.43,0.066-0.632,0.139c-0.398,0.144-0.804,0.199-1.217,0.107
			C8.167,284.025,7.791,283.927,7.421,283.814 M10.035,284.369c0.591-0.133,1.145,0.063,1.625,0.381
			c0.861,0.568,1.794,0.951,2.782,1.225c0.3,0.084,0.595,0.21,0.87,0.357c0.385,0.205,0.438,0.426,0.152,0.758
			c-0.438,0.512-0.96,0.878-1.7,0.775c-0.246-0.033-0.504,0.022-0.757,0.032c-0.19,0.009-0.385,0.024-0.574,0.002
			c-0.678-0.079-1.332-0.249-1.969-0.497c-0.369-0.145-0.76-0.138-1.151-0.094c-0.24,0.025-0.482,0.055-0.725,0.057
			c-0.526,0.008-0.946-0.215-1.326-0.578c-0.319-0.307-0.583-0.641-0.793-1.024c-0.061-0.112-0.146-0.212-0.244-0.353
			c0.151-0.043,0.264-0.076,0.376-0.108c0.535-0.149,1.07-0.302,1.608-0.448C8.818,284.685,9.422,284.503,10.035,284.369
			 M16.57,282.146c0.332,0.07,0.673,0.112,0.994,0.215c1.244,0.396,2.508,0.567,3.808,0.393c0.034-0.004,0.07,0.008,0.139,0.015
			c-0.299,0.651-0.679,1.216-1.093,1.749c-0.256,0.329-0.608,0.559-1.023,0.661c-0.278,0.069-0.516,0.202-0.72,0.403
			c-0.219,0.217-0.468,0.377-0.773,0.453c-0.175,0.041-0.332,0.146-0.506,0.193c-0.334,0.092-0.678,0.09-1.011,0.008
			c-0.528-0.133-1.053-0.285-1.573-0.447c-0.145-0.043-0.278-0.141-0.401-0.233c-0.229-0.175-0.488-0.263-0.762-0.33
			c-0.38-0.095-0.729-0.263-1.051-0.481c-0.443-0.303-0.431-0.768,0.023-1.056c0.275-0.175,0.543-0.366,0.827-0.526
			c0.176-0.1,0.372-0.184,0.569-0.223c0.364-0.068,0.694-0.205,1.009-0.392c0.136-0.081,0.277-0.149,0.418-0.224
			C15.799,282.137,16.173,282.064,16.57,282.146 M16.843,291.193c0.09-0.129,0.195-0.25,0.311-0.355
			c0.476-0.434,0.987-0.821,1.539-1.155c0.541-0.327,1.06-0.687,1.521-1.119c0.123-0.114,0.249-0.188,0.425-0.135
			c0.169,0.052,0.222,0.112,0.208,0.286c-0.004,0.06-0.018,0.119-0.036,0.178c-0.093,0.293-0.235,0.562-0.444,0.785
			c-0.32,0.344-0.654,0.676-1.006,1.037c-0.19-0.084-0.19-0.084-0.375-0.027c0.167,0.232,0.008,0.374-0.148,0.518
			c-0.425,0.39-0.958,0.556-1.493,0.715c-0.189,0.057-0.365-0.012-0.477-0.18C16.752,291.565,16.719,291.373,16.843,291.193
			 M13.675,292.508c0.005-0.169,0.101-0.216,0.213-0.237c0.711-0.137,1.419-0.307,2.149-0.303c0.119,0,0.241,0.029,0.352,0.068
			c0.058,0.021,0.127,0.094,0.13,0.146c0.003,0.05-0.062,0.135-0.116,0.154C15.513,292.664,14.621,292.902,13.675,292.508
			 M9.358,289.889c-0.103-0.062-0.181-0.126-0.161-0.255c0.02-0.146,0.13-0.188,0.255-0.217c0.564-0.133,1.131-0.271,1.695-0.404
			c0.048-0.012,0.097-0.02,0.145-0.021c0.65-0.008,1.27-0.186,1.893-0.342c0.035-0.009,0.071-0.017,0.105-0.029
			c1.028-0.369,1.956-0.049,2.855,0.426c0.258,0.136,0.502,0.293,0.747,0.449c0.091,0.059,0.168,0.138,0.242,0.215
			c0.111,0.113,0.11,0.236,0.01,0.357c-0.1,0.121-0.198,0.244-0.326,0.402c-0.193,0.1-0.41,0.232-0.645,0.328
			c-0.261,0.105-0.493,0.248-0.716,0.421c-0.189,0.144-0.414,0.245-0.625,0.358c-0.052,0.027-0.116,0.035-0.171,0.059
			c-0.955,0.402-1.938,0.38-2.935,0.207c-0.324-0.057-0.646-0.1-0.916-0.312c-0.291-0.228-0.543-0.492-0.706-0.822
			C9.932,290.357,9.688,290.085,9.358,289.889 M7.218,290.382c0.014-0.18,0.146-0.281,0.292-0.346
			c0.333-0.147,0.67-0.115,0.979,0.065c0.195,0.116,0.384,0.259,0.544,0.422c0.244,0.249,0.461,0.524,0.729,0.837
			c-0.765-0.1-1.471-0.195-2.118-0.533c-0.063-0.033-0.125-0.074-0.186-0.111C7.331,290.638,7.204,290.553,7.218,290.382
			 M3.986,285.818c0-0.369,0.203-0.628,0.503-0.787c0.283-0.15,0.563-0.029,0.818,0.133c0.322,0.203,0.49,0.537,0.684,0.84
			c0.502,0.789,1.161,1.384,2.016,1.767c0.705,0.315,1.405,0.644,2.107,0.968v0.062c-0.401,0.084-0.801,0.179-1.205,0.245
			c-0.123,0.021-0.266-0.021-0.39-0.062c-0.318-0.105-0.595-0.076-0.817,0.199c-0.107,0.133-0.257,0.18-0.42,0.18
			c-0.868,0.01-1.638-0.219-2.288-0.839c-0.471-0.446-0.772-0.95-0.864-1.59c-0.038-0.265-0.089-0.524-0.127-0.789
			C3.988,286.037,3.986,285.926,3.986,285.818 M3.637,285.149c0.062,0.414,0.082,0.835,0.12,1.253
			c-0.032,0.01-0.062,0.016-0.094,0.022c-0.097-0.179-0.208-0.351-0.287-0.534c-0.156-0.368-0.383-0.667-0.73-0.874
			c-0.08-0.048-0.166-0.108-0.214-0.188c-0.074-0.117-0.177-0.25-0.066-0.397c0.109-0.149,0.245-0.284,0.453-0.239
			c0.113,0.024,0.231,0.071,0.323,0.141C3.413,284.537,3.59,284.818,3.637,285.149 M4.228,280.248
			c0.361,0.348,0.679,0.729,0.878,1.194c0.45,1.051,1.117,1.954,1.895,2.781c0.107,0.116,0.229,0.214,0.345,0.321
			c0.075,0.072,0.148,0.148,0.251,0.254c-0.459,0.176-0.897,0.25-1.336,0.318c-0.09,0.016-0.197-0.012-0.282-0.052
			c-0.66-0.308-1.267-0.708-1.835-1.159c-0.311-0.246-0.505-0.584-0.479-1.013c0.02-0.36-0.106-0.688-0.242-1.017
			c-0.163-0.39-0.312-0.788-0.464-1.182c-0.035-0.09-0.064-0.184-0.083-0.278c-0.053-0.283,0.06-0.441,0.35-0.481
			C3.608,279.884,3.95,279.975,4.228,280.248 M4.59,274.798c0.373,0.104,0.755,0.181,1.127,0.29c0.687,0.2,1.294,0.541,1.811,1.037
			c0.052,0.05,0.111,0.099,0.146,0.16c0.369,0.639,0.963,1.087,1.412,1.659c0.116,0.147,0.293,0.246,0.444,0.365
			c0.054,0.042,0.111,0.077,0.212,0.144c-0.117,0.08-0.196,0.149-0.288,0.193c-0.536,0.253-1.076,0.502-1.615,0.747
			c-0.223,0.102-0.453,0.172-0.705,0.139c-0.07-0.009-0.149-0.014-0.216,0.009c-0.412,0.143-0.839,0.097-1.261,0.124
			c-0.361,0.024-0.699-0.052-1.015-0.231c-0.179-0.102-0.359-0.201-0.534-0.307c-0.609-0.369-0.791-0.929-0.515-1.612
			c-0.214-0.095-0.198-0.287-0.191-0.487c0.012-0.391-0.046-0.777-0.183-1.143c-0.069-0.187-0.199-0.353-0.305-0.526
			c-0.025-0.041-0.066-0.071-0.094-0.111c-0.183-0.262-0.099-0.482,0.216-0.52C3.555,274.665,4.076,274.651,4.59,274.798
			 M4.877,269.185c0.299,0.386,0.648,0.717,1.066,0.973c0.376,0.231,0.682,0.536,0.954,0.883c0.163,0.208,0.365,0.386,0.541,0.586
			c0.2,0.226,0.387,0.464,0.583,0.692c0.103,0.118,0.215,0.228,0.319,0.341c0.054,0.058,0.104,0.118,0.195,0.224
			c-0.201,0.04-0.351,0.084-0.501,0.098c-0.529,0.05-1.051,0.147-1.575,0.231c-0.542,0.086-1.004,0.331-1.501,0.509
			c-0.308,0.11-0.466,0.08-0.641-0.19c-0.123-0.187-0.164-0.398-0.17-0.621c-0.011-0.69-0.006-1.383-0.05-2.071
			c-0.035-0.542-0.134-1.079-0.202-1.619c-0.021-0.168-0.05-0.336-0.049-0.504c0.003-0.221,0.139-0.306,0.339-0.215
			c0.107,0.049,0.207,0.126,0.289,0.211C4.619,268.861,4.75,269.022,4.877,269.185 M5.033,268.547
			c0.707-0.285,1.393-0.617,2.045-1.016c0.462-0.284,0.98-0.401,1.501-0.516c0.104-0.024,0.218-0.013,0.324,0.004
			c0.155,0.025,0.314,0.051,0.459,0.109c0.925,0.365,1.822,0.776,2.599,1.42c0.211,0.174,0.477,0.279,0.713,0.424
			c0.205,0.126,0.415,0.249,0.599,0.402c0.19,0.157,0.153,0.313-0.07,0.407c-0.078,0.032-0.158,0.061-0.24,0.081
			c-0.7,0.163-1.352,0.451-1.991,0.771c-0.215,0.107-0.439,0.208-0.671,0.271c-0.182,0.05-0.389,0.08-0.572,0.045
			c-0.293-0.054-0.551-0.011-0.804,0.129c-0.465,0.257-0.934,0.21-1.4,0.009c-0.098-0.041-0.199-0.098-0.272-0.173
			c-0.476-0.492-1.048-0.857-1.593-1.26c-0.23-0.168-0.412-0.405-0.604-0.621c-0.093-0.105-0.156-0.236-0.243-0.37
			C4.888,268.621,4.957,268.577,5.033,268.547 M16.293,266.412c-0.595,0.548-1.268,0.934-2.1,0.965
			c-0.415,0.016-0.786,0.12-1.069,0.452c-0.116,0.136-0.281,0.199-0.46,0.17c-0.369-0.061-0.736-0.132-1.11-0.2
			c0.057-0.197,0.205-0.35,0.046-0.531c-0.211,0.068-0.147,0.26-0.209,0.407c-0.16,0.008-0.292-0.084-0.424-0.159
			c-0.604-0.343-1.243-0.591-1.915-0.771c-0.252-0.067-0.5-0.186-0.721-0.327c-0.309-0.196-0.291-0.404,0.051-0.549
			c0.511-0.217,1.031-0.423,1.562-0.586c0.521-0.161,1.036-0.327,1.516-0.595c0.517-0.29,1.081-0.368,1.655-0.244
			c0.4,0.086,0.804,0.197,1.178,0.361c0.698,0.307,1.359,0.689,1.968,1.154C16.496,266.14,16.505,266.22,16.293,266.412
			 M15.818,265.363c-0.228-0.192-0.516-0.314-0.775-0.468c-0.1-0.06-0.199-0.122-0.295-0.18c0.355-0.43,0.69-0.84,1.033-1.246
			c0.115-0.138,0.249-0.263,0.375-0.393c0.155-0.161,0.34-0.175,0.535-0.087c0.532,0.243,0.968,0.603,1.234,1.13
			c0.161,0.316,0.153,0.657,0.034,0.991c-0.092,0.255-0.266,0.424-0.533,0.504C16.848,265.787,16.313,265.779,15.818,265.363
			 M7.086,264.485c0.182,0.433,0.374,0.864,0.51,1.312c0.126,0.414-0.011,0.815-0.2,1.19c-0.029,0.06-0.087,0.118-0.145,0.15
			c-0.442,0.251-0.895,0.484-1.329,0.744c-0.403,0.241-0.96-0.045-0.876-0.643c0.062-0.449,0.216-0.868,0.407-1.276
			c0.051-0.109,0.1-0.221,0.166-0.321c0.311-0.477,0.472-1.006,0.558-1.562c0.009-0.06,0.019-0.121,0.036-0.179
			c0.035-0.111,0.127-0.162,0.227-0.115c0.138,0.067,0.263,0.163,0.366,0.23C6.915,264.194,7.02,264.332,7.086,264.485
			 M10.346,262.776c0.624,0.26,0.977,0.729,1.118,1.377c0.038,0.168-0.01,0.265-0.167,0.349c-0.76,0.406-1.566,0.641-2.427,0.683
			c-0.121,0.006-0.243,0.002-0.364,0.011c-0.354,0.026-0.645-0.087-0.858-0.38c-0.177-0.26-0.353-0.522-0.531-0.78
			c-0.075-0.109-0.06-0.204,0.028-0.293c0.044-0.044,0.081-0.095,0.132-0.127c0.408-0.257,0.798-0.559,1.233-0.756
			C9.096,262.596,9.719,262.516,10.346,262.776 M11.401,260.794c-0.162,0.834-1.245,1.659-2.248,1.504
			c-0.076-0.255-0.006-0.419,0.202-0.544c0.136-0.08,0.254-0.189,0.37-0.293c0.441-0.392,0.979-0.566,1.54-0.683
			c0.036-0.008,0.072-0.003,0.109-0.001C11.384,260.777,11.39,260.789,11.401,260.794 M12.508,261.616
			c-0.021,0.429-0.204,0.77-0.632,0.928c-0.179,0.067-0.364,0.127-0.551,0.164c-0.285,0.055-0.52-0.045-0.721-0.31
			c0.074-0.101,0.134-0.221,0.227-0.303c0.285-0.253,0.497-0.556,0.689-0.88c0.097-0.16,0.227-0.303,0.348-0.462
			C12.302,260.94,12.528,261.203,12.508,261.616 M14.996,262.61c0.122,0.078,0.23,0.179,0.334,0.281
			c0.179,0.176,0.173,0.237-0.014,0.415c-0.026,0.025-0.056,0.047-0.143,0.123c-0.27,0.209-0.638,0.389-1.056,0.446
			c-0.604,0.082-1.213,0.123-1.81-0.044c-0.226-0.065-0.445-0.183-0.647-0.31c-0.139-0.086-0.128-0.211,0.003-0.295
			c0.436-0.284,0.873-0.569,1.322-0.833C13.703,261.974,14.366,262.201,14.996,262.61 M16.758,262.078
			c-0.124,0.179-0.253,0.353-0.387,0.524c-0.081,0.104-0.199,0.148-0.325,0.122c-0.211-0.045-0.441-0.064-0.623-0.166
			c-0.529-0.297-1.028-0.641-1.452-1.095c-0.126-0.206-0.276-0.4-0.37-0.619c-0.14-0.334,0.062-0.594,0.419-0.55
			c0.629,0.078,1.242,0.234,1.813,0.513c0.398,0.196,0.71,0.499,0.927,0.898C16.831,261.84,16.841,261.957,16.758,262.078
			 M18.556,264.841c-0.176-0.442-0.342-0.85-0.604-1.215c-0.269-0.371-0.66-0.587-1.034-0.903c0.211-0.148,0.379-0.285,0.563-0.388
			c0.125-0.071,0.266-0.024,0.377,0.062c0.381,0.294,0.715,0.623,0.793,1.131c0.016,0.107,0.03,0.216,0.059,0.321
			C18.802,264.183,18.744,264.494,18.556,264.841 M19.468,265.764c0.018,0.159-0.083,0.239-0.245,0.243
			c-0.29,0.006-0.493-0.218-0.444-0.525c0.039-0.258,0.114-0.513,0.175-0.769c0.03-0.008,0.061-0.017,0.092-0.023
			C19.259,265.016,19.427,265.365,19.468,265.764 M20.014,267.391c-0.035,0.154-0.056,0.313-0.105,0.461
			c-0.171,0.505-0.36,1.005-0.529,1.51c-0.114,0.341-0.354,0.542-0.677,0.659c-0.278,0.1-0.569,0.132-0.861,0.089
			c-0.239-0.035-0.479-0.08-0.714-0.14c-0.366-0.093-0.734-0.147-1.113-0.171c-0.556-0.036-1.109-0.116-1.663-0.189
			c-0.293-0.039-0.547-0.16-0.772-0.37c-0.191-0.177-0.435-0.3-0.673-0.459c0.028-0.226,0.124-0.357,0.32-0.425
			c0.331-0.116,0.651-0.262,0.984-0.369c0.805-0.261,1.534-0.656,2.198-1.18c0.237-0.188,0.479-0.374,0.741-0.528
			c0.149-0.089,0.337-0.138,0.513-0.159c0.639-0.076,1.192,0.148,1.691,0.53c0.184,0.139,0.354,0.295,0.54,0.428
			C20.012,267.162,20.046,267.26,20.014,267.391 M20.292,270.832c-0.008-0.072-0.014-0.132-0.021-0.191
			c-0.196-0.006-0.196-0.006-0.248,0.27c-0.188-0.014-0.38-0.022-0.57-0.045c-0.155-0.017-0.247-0.117-0.236-0.271
			c0.013-0.167,0.017-0.351,0.09-0.494c0.399-0.78,0.675-1.605,0.93-2.438c0.039-0.128,0.077-0.256,0.134-0.376
			c0.164-0.347,0.373-0.452,0.795-0.414c0.098,0.12,0.066,0.244,0.01,0.371c-0.088,0.199-0.163,0.405-0.26,0.6
			c-0.149,0.296-0.18,0.604-0.092,0.918c0.078,0.279,0.176,0.553,0.273,0.826C21.351,270.303,21.094,270.721,20.292,270.832
			 M21.218,271.481c0.22,0.537,0.417,1.084,0.607,1.632c0.069,0.201,0.034,0.402-0.088,0.592c-0.289,0.451-0.502,0.938-0.64,1.459
			c-0.024,0.097-0.094,0.198-0.172,0.265c-0.646,0.55-1.357,0.385-1.833-0.075c-0.096-0.093-0.183-0.197-0.287-0.277
			c-0.473-0.363-0.996-0.423-1.548-0.224c-0.227,0.081-0.443,0.196-0.665,0.291c-0.107,0.047-0.22,0.084-0.345,0.13
			c-0.086-0.196,0.023-0.254,0.099-0.326c0.271-0.261,0.559-0.509,0.813-0.784c0.461-0.497,0.925-0.995,1.35-1.523
			c0.387-0.48,0.861-0.856,1.362-1.193c0.22-0.149,0.517-0.197,0.787-0.25C20.951,271.14,21.105,271.213,21.218,271.481
			 M22.035,271.865c-0.007,0.027-0.052,0.047-0.082,0.073c-0.216-0.075-0.303-0.275-0.413-0.441
			c-0.339-0.511-0.334-0.515,0.032-1.008c0.064-0.087,0.135-0.171,0.203-0.255c0.16-0.197,0.175-0.202,0.544-0.201
			c0.006,0.127,0.03,0.237,0.012,0.341C22.24,270.871,22.136,271.368,22.035,271.865 M22.387,274.368
			c-0.035,0.215-0.091,0.427-0.131,0.641c-0.12,0.644-0.193,1.29-0.169,1.95c0.021,0.572-0.269,1.05-0.629,1.469
			c-0.384,0.447-0.89,0.698-1.473,0.79c-0.06,0.01-0.12,0.019-0.181,0.014c-0.202-0.017-0.276-0.127-0.22-0.32
			c0.01-0.035,0.021-0.073,0.043-0.1c0.367-0.463,0.505-1.04,0.78-1.551c0.463-0.862,0.861-1.755,1.166-2.688
			c0.102-0.312,0.244-0.61,0.5-0.83c0.092-0.079,0.184-0.209,0.366-0.113C22.483,273.872,22.428,274.12,22.387,274.368
			 M22.805,278.216c-0.067-0.103-0.139-0.173-0.163-0.257c-0.141-0.491-0.267-0.984,0.098-1.444c0.17-0.216,0.452-0.352,0.797-0.356
			C23.301,276.827,23.063,277.49,22.805,278.216 M22.002,281.232c-0.211,0.231-0.469,0.418-0.694,0.636
			c-0.189,0.184-0.398,0.26-0.674,0.161c-0.088,0.338-0.352,0.439-0.634,0.455c-0.336,0.018-0.683,0.021-1.012-0.041
			c-0.51-0.096-1.013-0.242-1.512-0.386c-0.345-0.101-0.456-0.385-0.236-0.674c0.17-0.224,0.39-0.443,0.637-0.575
			c0.724-0.386,1.472-0.728,2.212-1.083c0.12-0.057,0.245-0.114,0.374-0.137c0.732-0.127,1.344-0.526,1.987-0.857
			c0.093-0.048,0.191-0.085,0.321-0.142c0.139,0.271,0.192,0.497,0.155,0.747C22.818,280.065,22.493,280.693,22.002,281.232
			 M23.206,282.476c-0.001,0.326,0,0.65,0.02,0.977c0.019,0.307,0.023,0.33-0.239,0.455c-0.484,0.231-0.8,0.61-0.996,1.104
			c-0.146,0.363-0.289,0.429-0.668,0.318c-0.069-0.021-0.138-0.047-0.202-0.08c-0.312-0.155-0.377-0.274-0.271-0.61
			c0.08-0.252,0.196-0.494,0.316-0.729c0.153-0.301,0.335-0.588,0.491-0.889c0.222-0.43,0.443-0.859,0.756-1.235
			c0.126-0.151,0.266-0.293,0.469-0.324c0.097-0.014,0.2,0.023,0.313,0.038c0.017,0.135,0.04,0.228,0.038,0.323
			C23.229,282.039,23.207,282.258,23.206,282.476 M22.669,283.232c-0.263-0.045-0.288-0.021-0.255,0.266
			C22.576,283.478,22.681,283.417,22.669,283.232 M22.014,283.761c-0.102-0.074-0.204-0.082-0.266,0.037
			c-0.016,0.031,0.048,0.148,0.087,0.154C21.964,283.972,22.039,283.908,22.014,283.761 M21.771,284.251
			c-0.156,0.021-0.26,0.052-0.36,0.05c-0.112-0.003-0.218-0.024-0.263,0.167c0.077,0.031,0.158,0.093,0.238,0.093
			c0.141,0,0.279-0.037,0.441-0.063C21.804,284.397,21.788,284.324,21.771,284.251 M22.109,280.54
			c0.046-0.124-0.013-0.201-0.161-0.219c-0.051,0.097-0.097,0.189-0.15,0.295C21.945,280.689,22.054,280.686,22.109,280.54
			 M21.453,281.349c0.038-0.184,0.076-0.365,0.113-0.546c-0.023-0.014-0.049-0.028-0.072-0.042
			c-0.121,0.107-0.205,0.245-0.252,0.401C21.193,281.328,21.285,281.373,21.453,281.349 M20.997,281.209
			c0.033-0.004,0.081-0.057,0.085-0.091c0.012-0.127-0.088-0.156-0.184-0.176c-0.031-0.006-0.068,0.011-0.105,0.019
			c-0.004,0.038-0.021,0.076-0.012,0.107C20.809,281.178,20.891,281.225,20.997,281.209 M19.842,281.55
			c0.026,0.041,0.119,0.039,0.219,0.064c-0.002-0.095,0.023-0.184-0.011-0.216c-0.036-0.038-0.123-0.027-0.188-0.037
			C19.851,281.426,19.814,281.509,19.842,281.55 M19.718,282.345c-0.025-0.307-0.025-0.307-0.229-0.352
			C19.455,282.307,19.455,282.307,19.718,282.345 M18.999,282.033c0.028-0.015,0.017-0.101,0.023-0.154
			c-0.073-0.01-0.152-0.036-0.22-0.019c-0.028,0.008-0.032,0.109-0.061,0.22C18.862,282.06,18.939,282.064,18.999,282.033
			 M21.538,277.375c0.05,0.033,0.125,0.028,0.217,0.044c-0.006-0.086,0.008-0.176-0.017-0.188c-0.055-0.027-0.133-0.028-0.19-0.01
			C21.528,277.228,21.514,277.359,21.538,277.375 M21.706,276.872c0.023-0.014,0.017-0.076,0.028-0.143
			c-0.082,0.009-0.15-0.003-0.186,0.026c-0.023,0.021,0.001,0.096,0.004,0.148C21.604,276.894,21.664,276.898,21.706,276.872
			 M21.704,276.392c0.021-0.046,0.018-0.103,0.024-0.156c-0.054,0.002-0.11-0.004-0.159,0.013c-0.015,0.004-0.002,0.079-0.002,0.141
			C21.625,276.392,21.698,276.408,21.704,276.392 M21.36,277.963c-0.035-0.144-0.151-0.104-0.274-0.062
			c-0.004,0.126-0.002,0.24,0.13,0.222C21.272,278.116,21.37,278.005,21.36,277.963 M21.221,277.559
			c0.023-0.004,0.029-0.094,0.054-0.187c-0.104-0.001-0.187-0.022-0.246,0.005c-0.032,0.015-0.025,0.114-0.035,0.175
			C21.071,277.557,21.147,277.575,21.221,277.559 M20.836,278.664c0.002-0.053,0.023-0.14,0.003-0.151
			c-0.052-0.027-0.122-0.027-0.184-0.021c-0.012,0.001-0.016,0.08-0.027,0.149C20.71,278.65,20.772,278.658,20.836,278.664
			 M20.701,278.101c0.036-0.031,0.037-0.102,0.066-0.2c-0.108,0.007-0.189-0.003-0.257,0.022c-0.025,0.009-0.046,0.114-0.025,0.15
			C20.535,278.162,20.631,278.162,20.701,278.101 M20.018,278.611c0.062,0.031,0.145,0.025,0.26,0.039
			c-0.023-0.109-0.027-0.217-0.052-0.223c-0.071-0.014-0.154,0.005-0.224,0.031C19.989,278.466,19.993,278.599,20.018,278.611
			 M21.532,273.627c0.011-0.003,0.02-0.014,0.05-0.036c-0.14-0.144-0.197-0.177-0.259-0.14c-0.024,0.014-0.051,0.061-0.042,0.084
			C21.321,273.674,21.426,273.659,21.532,273.627 M20.968,273.977c0.065-0.07,0.094-0.174-0.053-0.251
			c-0.069,0.06-0.146,0.126-0.224,0.194C20.778,274.048,20.877,274.072,20.968,273.977 M20.449,274.664
			c0.113-0.065,0.153-0.17,0.078-0.319c-0.102,0.087-0.19,0.163-0.331,0.286C20.329,274.651,20.407,274.688,20.449,274.664
			 M20.245,274.056c0.015-0.129,0.049-0.269-0.146-0.292c-0.124-0.015-0.219,0.081-0.205,0.189
			C19.91,274.078,19.992,274.103,20.245,274.056 M19.976,275.01c-0.014,0.073-0.049,0.152-0.031,0.217
			c0.01,0.036,0.107,0.047,0.21,0.088c0.006-0.115,0.031-0.201,0.003-0.258C20.138,275.02,20.039,275.023,19.976,275.01
			 M19.309,274.731c0.085,0.01,0.165,0.019,0.268,0.03c-0.013-0.232-0.026-0.278-0.086-0.279
			C19.333,274.481,19.285,274.567,19.309,274.731 M20.195,269.287c0.036-0.033,0.044-0.124,0.028-0.181
			c-0.007-0.026-0.095-0.03-0.167-0.051c-0.017,0.085-0.027,0.149-0.04,0.214C20.077,269.277,20.164,269.314,20.195,269.287
			 M20.179,269.855c-0.119,0.04-0.195,0.052-0.253,0.092c-0.02,0.014-0.006,0.133,0.018,0.142c0.055,0.023,0.144,0.033,0.183,0.002
			C20.164,270.062,20.157,269.975,20.179,269.855 M19.614,268.162c0.036-0.029,0.027-0.115,0.045-0.203
			c-0.099,0-0.18-0.025-0.226,0.005c-0.084,0.054-0.072,0.155,0,0.209C19.471,268.202,19.575,268.194,19.614,268.162 M19.109,268.93
			c0.01-0.136,0.037-0.246-0.106-0.257c-0.107-0.006-0.219,0.007-0.321,0.036c-0.042,0.012-0.093,0.094-0.087,0.135
			c0.007,0.045,0.076,0.109,0.121,0.112C18.834,268.963,18.954,268.941,19.109,268.93 M18.701,269.691
			c-0.055-0.193-0.022-0.364-0.237-0.448c-0.074,0.154-0.089,0.296-0.021,0.461C18.517,269.702,18.585,269.698,18.701,269.691
			 M17.956,269.68c0.032-0.152,0.054-0.306,0.089-0.527c-0.128,0.021-0.247,0.021-0.25,0.041c-0.026,0.161-0.036,0.325-0.037,0.489
			c0,0.02,0.076,0.053,0.118,0.058C17.903,269.743,17.951,269.705,17.956,269.68 M17.53,268.464
			c0.009-0.002,0.017-0.136-0.011-0.153c-0.061-0.038-0.146-0.059-0.216-0.048c-0.026,0.004-0.039,0.112-0.074,0.227
			C17.36,268.481,17.447,268.481,17.53,268.464 M17.198,269.355c0.02,0.012,0.039,0.031,0.06,0.035
			c0.111,0.019,0.224,0.024,0.246-0.121c0.005-0.04-0.043-0.114-0.082-0.127C17.304,269.102,17.238,269.175,17.198,269.355
			 M16.602,269.014c0.049-0.031,0.046-0.138,0.077-0.252c-0.121,0.003-0.215-0.022-0.27,0.013c-0.066,0.042-0.112,0.151-0.025,0.215
			C16.438,269.029,16.554,269.046,16.602,269.014 M15.845,269.59c0.026-0.021,0.051-0.039,0.076-0.059
			c-0.044-0.051-0.088-0.102-0.133-0.153c-0.018,0.013-0.035,0.026-0.053,0.039C15.771,269.474,15.808,269.533,15.845,269.59
			 M16.145,262.299c0.001-0.026-0.035-0.076-0.058-0.078c-0.125-0.01-0.215,0.03-0.191,0.228
			C16.022,262.44,16.138,262.456,16.145,262.299 M15.366,261.866c0.11-0.042,0.177-0.064,0.237-0.096
			c0.006-0.003-0.016-0.099-0.043-0.111C15.447,261.61,15.388,261.668,15.366,261.866 M15.006,261.623
			c-0.099-0.068-0.197-0.057-0.293,0.006c-0.065,0.042-0.062,0.146,0.001,0.177C14.832,261.866,14.936,261.802,15.006,261.623
			 M13.863,263.505c0.045-0.024,0.092-0.128,0.073-0.167c-0.049-0.113-0.163-0.082-0.24-0.036c-0.043,0.025-0.052,0.108-0.096,0.213
			C13.719,263.514,13.804,263.535,13.863,263.505 M13.083,263.497c0.047-0.028,0.058-0.116,0.113-0.241
			c-0.126,0.02-0.189,0.013-0.234,0.039c-0.075,0.041-0.141,0.101-0.202,0.162c-0.007,0.008,0.045,0.104,0.063,0.103
			C12.912,263.554,13.01,263.542,13.083,263.497 M14.304,262.974c-0.033-0.003-0.098,0.049-0.099,0.077
			c-0.002,0.139,0.076,0.188,0.239,0.144C14.453,263.064,14.423,262.982,14.304,262.974 M9.427,264.729
			c-0.001,0.027,0.067,0.083,0.099,0.08c0.147-0.014,0.199-0.113,0.188-0.252c-0.001-0.009-0.013-0.017-0.032-0.043
			C9.55,264.521,9.433,264.561,9.427,264.729 M10.041,264.229c-0.003,0.052-0.029,0.137-0.008,0.15
			c0.059,0.037,0.136,0.046,0.24,0.075c-0.004-0.098,0.008-0.189-0.01-0.196C10.196,264.233,10.117,264.236,10.041,264.229
			 M6.887,266.731c0.001-0.095,0.001-0.173,0.002-0.294c-0.146,0.051-0.335-0.002-0.322,0.185
			C6.578,266.807,6.746,266.755,6.887,266.731 M6.472,266.736c-0.177-0.08-0.324-0.146-0.47-0.212
			c-0.131,0.224-0.128,0.412-0.003,0.475C6.141,267.072,6.311,266.985,6.472,266.736 M5.767,266.882
			c0-0.078,0.001-0.132,0.001-0.186c-0.065,0.002-0.147-0.019-0.192,0.013c-0.035,0.024-0.02,0.115-0.027,0.177
			C5.616,266.884,5.679,266.883,5.767,266.882 M16.077,264.845c-0.04,0.032-0.043,0.112-0.076,0.21
			c0.113,0.006,0.196,0.03,0.258,0.005c0.031-0.012,0.048-0.13,0.027-0.181C16.245,264.78,16.143,264.79,16.077,264.845
			 M16.662,264.609c0.13,0.056,0.208,0.012,0.224-0.124c0.003-0.021-0.063-0.071-0.1-0.071
			C16.656,264.415,16.635,264.498,16.662,264.609 M17.322,265.399c0.282-0.05,0.282-0.05,0.231-0.337
			C17.372,265.089,17.335,265.217,17.322,265.399 M12.993,266.899c0.022-0.031,0.019-0.084,0.029-0.144
			c-0.06-0.012-0.114-0.042-0.145-0.026c-0.075,0.041-0.141,0.101-0.205,0.16c-0.006,0.005,0.022,0.068,0.047,0.081
			C12.828,267.026,12.925,266.993,12.993,266.899 M12.118,267.154c0.032-0.002,0.064-0.018,0.097-0.029
			c-0.03-0.195-0.077-0.245-0.221-0.22c-0.037,0.007-0.097,0.053-0.097,0.08C11.901,267.122,11.997,267.161,12.118,267.154
			 M11.539,266.907c0.01-0.147-0.097-0.175-0.217-0.173c-0.023,0-0.046,0.011-0.094,0.023c-0.058,0.188,0.047,0.238,0.184,0.239
			C11.456,266.996,11.537,266.94,11.539,266.907 M11.073,266.382c0.024-0.01,0.009-0.119,0.013-0.224
			c-0.105,0.02-0.189,0.018-0.245,0.055c-0.026,0.018-0.012,0.16,0.015,0.17C10.919,266.409,11.01,266.409,11.073,266.382
			 M10.949,266.738c-0.106,0.011-0.197-0.004-0.247,0.035c-0.035,0.025-0.016,0.125-0.02,0.192c0.078,0.005,0.162,0.028,0.231,0.005
			C10.942,266.96,10.933,266.849,10.949,266.738 M10.179,266.551c0.018-0.006-0.004-0.119-0.008-0.183
			c-0.1,0.01-0.203,0.006-0.296,0.037c-0.038,0.012-0.052,0.099-0.105,0.216C9.986,266.589,10.088,266.582,10.179,266.551
			 M6.659,269.912c0.055-0.015,0.094-0.086,0.18-0.173c-0.109-0.04-0.153-0.073-0.194-0.067c-0.063,0.007-0.133,0.029-0.182,0.066
			c-0.021,0.015-0.018,0.116,0.003,0.128C6.522,269.898,6.6,269.927,6.659,269.912 M7.113,270.37
			c-0.011,0.028,0.048,0.112,0.087,0.122c0.138,0.036,0.205-0.024,0.174-0.186C7.282,270.309,7.167,270.218,7.113,270.37
			 M7.7,270.013c-0.029,0.017-0.023,0.1-0.032,0.151c0.066,0.007,0.138,0.032,0.194,0.012c0.031-0.011,0.035-0.097,0.064-0.188
			C7.826,269.996,7.751,269.984,7.7,270.013 M8.247,270.386c-0.142,0.113-0.274,0.188-0.163,0.422
			C8.263,270.699,8.323,270.589,8.247,270.386 M8.562,269.981c-0.04,0.171-0.084,0.286,0.084,0.314
			c0.161,0.025,0.167-0.094,0.181-0.27C8.723,270.009,8.644,269.995,8.562,269.981 M9.08,270.282
			c-0.014,0.144,0.1,0.162,0.221,0.152c0.078-0.102,0.079-0.207-0.043-0.258C9.219,270.159,9.085,270.238,9.08,270.282
			 M9.928,270.11c-0.036,0.025-0.057,0.136-0.032,0.173c0.028,0.041,0.116,0.042,0.208,0.07c0.006-0.1,0.034-0.185,0.005-0.228
			C10.084,270.092,9.97,270.082,9.928,270.11 M4.776,271.807c-0.205,0.032-0.307,0.127-0.353,0.291
			C4.653,272.215,4.657,272.211,4.776,271.807 M4.769,272.432c0.087,0.057,0.146,0.094,0.22,0.142
			c-0.104,0.546-0.078,0.608,0.266,0.514c-0.075-0.265-0.15-0.529-0.237-0.837C4.915,272.326,4.855,272.369,4.769,272.432
			 M6.032,272.599c-0.023,0.023-0.016,0.119,0.012,0.14c0.034,0.027,0.101,0.01,0.193,0.014c-0.023-0.082-0.023-0.157-0.058-0.177
			C6.144,272.555,6.061,272.571,6.032,272.599 M4.637,277.311c-0.251-0.021-0.292-0.014-0.292,0.081
			c0,0.056,0.044,0.141,0.092,0.165C4.536,277.605,4.597,277.524,4.637,277.311 M4.492,277.87c-0.055,0.029-0.086,0.098-0.168,0.199
			c0.129,0.03,0.202,0.069,0.257,0.053c0.053-0.015,0.102-0.082,0.128-0.139c0.016-0.03-0.008-0.118-0.026-0.122
			C4.62,277.849,4.543,277.844,4.492,277.87 M4.93,278.505c-0.104,0.092-0.206,0.178-0.302,0.261
			c0.051,0.153,0.143,0.172,0.252,0.105C5.001,278.796,5.017,278.68,4.93,278.505 M5.313,277.226
			c-0.134,0.006-0.222,0.009-0.314,0.012c0.052,0.206,0.062,0.215,0.243,0.268C5.263,277.425,5.285,277.342,5.313,277.226
			 M5.256,277.513c-0.007-0.002-0.006-0.004-0.013-0.006c-0.001,0.002-0.002,0.005-0.002,0.006c0.003,0.002,0.008,0.003,0.011,0.005
			C5.254,277.516,5.255,277.514,5.256,277.513 M5.251,277.517c-0.128,0.124-0.222,0.26-0.166,0.453
			c0.235-0.029,0.357-0.117,0.368-0.265C5.464,277.56,5.339,277.559,5.251,277.517 M5.474,278.933
			c-0.088,0.094-0.187,0.179-0.258,0.284c-0.025,0.039,0.002,0.133,0.034,0.182c0.015,0.023,0.122,0.017,0.155-0.012
			c0.12-0.107,0.18-0.242,0.152-0.4C5.532,278.969,5.504,278.951,5.474,278.933 M5.617,278.287c-0.263-0.112-0.298-0.072-0.294,0.34
			C5.512,278.578,5.59,278.458,5.617,278.287 M6.1,278.789c-0.043,0-0.085,0.021-0.129,0.032c0.003,0.155,0.081,0.204,0.203,0.177
			c0.084-0.018,0.152-0.068,0.089-0.187C6.214,278.805,6.157,278.788,6.1,278.789 M6.77,278.882
			c-0.053,0.034-0.073,0.115-0.143,0.233c0.131-0.014,0.199-0.004,0.248-0.03c0.074-0.039,0.146-0.112,0.078-0.196
			C6.927,278.855,6.814,278.853,6.77,278.882 M7.355,278.803c0.011,0.021,0.015,0.052,0.03,0.06
			c0.052,0.027,0.109,0.047,0.198,0.083C7.53,278.673,7.53,278.673,7.355,278.803 M8.01,278.478
			c-0.032,0.007-0.076,0.066-0.076,0.101c0.001,0.037,0.037,0.098,0.072,0.109c0.153,0.051,0.274,0.014,0.335-0.148
			C8.243,278.399,8.119,278.456,8.01,278.478 M4.06,282.496c-0.093,0.051-0.137,0.137-0.035,0.254
			c0.241-0.068,0.428-0.228,0.639-0.399C4.388,282.201,4.238,282.404,4.06,282.496 M3.832,281.689
			c0.012-0.23-0.161-0.168-0.318-0.212C3.576,281.724,3.576,281.724,3.832,281.689 M4.707,282.873
			c0.178-0.008,0.197-0.135,0.199-0.297c-0.123,0.025-0.226,0.047-0.336,0.068C4.532,282.811,4.588,282.878,4.707,282.873
			 M5.019,283.208c-0.251,0.027-0.409,0.086-0.578,0.22c0.072,0.054,0.123,0.125,0.174,0.124
			C4.802,283.548,4.894,283.414,5.019,283.208 M5.156,283.688c-0.028,0.026-0.015,0.149,0.022,0.181
			c0.035,0.029,0.141,0.02,0.184-0.015c0.034-0.024,0.023-0.11,0.041-0.224C5.288,283.654,5.201,283.647,5.156,283.688
			 M5.868,284.492c0.068-0.002,0.138-0.004,0.234-0.006C6.018,284.303,5.945,284.315,5.868,284.492 M6.387,284.516
			c-0.012,0.005-0.001,0.123,0.03,0.146c0.049,0.031,0.123,0.024,0.227,0.043c-0.027-0.105-0.026-0.203-0.066-0.225
			C6.532,284.457,6.447,284.49,6.387,284.516 M5.221,287.849c0.17,0.091,0.254-0.003,0.313-0.109
			c0.028-0.052,0.007-0.133,0.01-0.272C5.387,287.617,5.229,287.648,5.221,287.849 M5.56,286.957
			c0.054-0.131,0.012-0.219-0.124-0.237c-0.032-0.005-0.112,0.073-0.109,0.106C5.341,286.96,5.428,287.001,5.56,286.957
			 M6.071,287.685c-0.034,0.053-0.058,0.145-0.032,0.188c0.021,0.039,0.117,0.039,0.229,0.068c-0.018-0.117-0.018-0.197-0.048-0.263
			C6.213,287.662,6.088,287.66,6.071,287.685 M6.225,288.434c0.003,0.024,0.076,0.071,0.104,0.062
			c0.145-0.041,0.21-0.137,0.136-0.334C6.329,288.224,6.207,288.27,6.225,288.434 M6.74,288.353
			c-0.048,0.124-0.128,0.23-0.002,0.331c0.03,0.024,0.141,0.015,0.157-0.015C6.976,288.535,6.936,288.425,6.74,288.353
			 M7.258,288.436c-0.033-0.024-0.1-0.004-0.153-0.003c0.006,0.053-0.011,0.121,0.018,0.154c0.022,0.027,0.095,0.017,0.181,0.025
			C7.284,288.533,7.287,288.46,7.258,288.436 M7.671,288.641c-0.042,0.112-0.031,0.201,0.111,0.194
			c0.04-0.002,0.11-0.073,0.107-0.106C7.872,288.583,7.764,288.621,7.671,288.641 M10.518,290.301
			c-0.034,0.032-0.023,0.116-0.031,0.178c0.054,0.005,0.126,0.033,0.157,0.009c0.043-0.033,0.056-0.104,0.1-0.203
			C10.637,290.291,10.554,290.268,10.518,290.301 M11.554,290.783c-0.032-0.017-0.126,0.016-0.126,0.025
			c-0.002,0.171-0.002,0.342,0.018,0.514c0.004,0.043,0.066,0.082,0.109,0.116c0.014,0.013,0.046,0,0.093-0.002
			c0.011-0.104,0.022-0.209,0.027-0.313c0.003-0.071,0.007-0.148-0.013-0.217C11.646,290.857,11.599,290.806,11.554,290.783
			 M11.917,290.764c-0.029-0.003-0.092,0.056-0.092,0.086c-0.004,0.146,0.079,0.185,0.213,0.147
			C12.091,290.869,12.061,290.779,11.917,290.764 M12.577,291.228c-0.033,0.075-0.083,0.146-0.096,0.227
			c-0.014,0.096,0.051,0.172,0.148,0.152c0.048-0.01,0.116-0.094,0.116-0.143c-0.003-0.084-0.053-0.165-0.083-0.247
			C12.635,291.222,12.604,291.224,12.577,291.228 M12.909,290.902c-0.001,0.037,0.064,0.115,0.095,0.113
			c0.126-0.01,0.13-0.107,0.122-0.229C12.999,290.755,12.912,290.777,12.909,290.902 M13.502,291.113
			c-0.027,0.053-0.024,0.121-0.036,0.209c0.077,0.008,0.144,0.034,0.178,0.014c0.096-0.059,0.062-0.148,0.003-0.207
			C13.619,291.099,13.511,291.096,13.502,291.113 M14.021,290.471c0.002,0.075-0.008,0.157,0.017,0.228
			c0.008,0.024,0.097,0.021,0.193,0.039c-0.007-0.105,0.009-0.193-0.024-0.252C14.188,290.457,14.086,290.474,14.021,290.471
			 M14.84,290.693c-0.031,0.102-0.059,0.192-0.104,0.346c0.104-0.045,0.173-0.053,0.191-0.086
			C14.971,290.871,15.001,290.771,14.84,290.693 M15.485,290.376c0,0.041,0.058,0.115,0.093,0.117
			c0.144,0.008,0.128-0.111,0.137-0.205c0.002-0.021-0.014-0.045-0.023-0.066C15.543,290.167,15.484,290.246,15.485,290.376
			 M17.953,290.917c-0.021,0.013-0.021,0.131,0.005,0.147c0.051,0.033,0.126,0.03,0.224,0.05c-0.017-0.1-0.006-0.191-0.044-0.221
			S18.008,290.89,17.953,290.917 M18.423,290.921c-0.035,0.029-0.033,0.102-0.047,0.156c0.051,0.006,0.113,0.031,0.152,0.014
			c0.036-0.02,0.051-0.084,0.096-0.166C18.525,290.919,18.453,290.895,18.423,290.921 M17.235,284.966
			c0.023-0.01,0.015-0.098,0.026-0.198c-0.108,0.026-0.188,0.028-0.248,0.067c-0.023,0.016,0.001,0.104,0.003,0.158
			C17.091,284.986,17.168,284.994,17.235,284.966 M17.002,285.683c-0.037-0.202-0.098-0.32-0.276-0.381
			C16.73,285.602,16.73,285.602,17.002,285.683 M16.509,284.279c0.004-0.178-0.004-0.309-0.189-0.301
			c-0.041,0.001-0.112,0.07-0.112,0.109C16.205,284.266,16.332,284.281,16.509,284.279 M16.085,285.437
			c0.005-0.156,0.042-0.292-0.143-0.402c-0.105,0.127-0.147,0.248-0.057,0.371C15.912,285.441,16.008,285.428,16.085,285.437
			 M15.564,284.97c0.157,0.029,0.243,0.044,0.355,0.064c-0.001-0.227-0.066-0.297-0.174-0.271
			C15.689,284.777,15.655,284.865,15.564,284.97 M14.711,284.801c0.033-0.015,0.055-0.142,0.028-0.177
			c-0.03-0.039-0.135-0.055-0.184-0.031c-0.046,0.021-0.062,0.105-0.117,0.209C14.563,284.806,14.65,284.83,14.711,284.801
			 M17.922,284.914c-0.027,0.09-0.01,0.188,0.104,0.225c0.017,0.006,0.041-0.012,0.078-0.023c0.002-0.086,0.006-0.177,0.012-0.351
			C18.012,284.839,17.933,284.867,17.922,284.914 M18.349,284.561c-0.015,0.011-0.007,0.089,0.016,0.104
			c0.027,0.02,0.078,0.008,0.148,0.009c-0.018-0.065-0.02-0.13-0.04-0.138C18.437,284.524,18.383,284.539,18.349,284.561
			 M19.925,284.179c-0.072,0.07-0.158,0.132-0.21,0.216c-0.026,0.041,0.013,0.122,0.022,0.185c0.059-0.021,0.149-0.026,0.171-0.067
			c0.045-0.089,0.053-0.197,0.076-0.298C19.965,284.203,19.946,284.189,19.925,284.179 M10.092,286.386
			c-0.022,0.002-0.043,0.016-0.097,0.035c0.015,0.048,0.017,0.096,0.04,0.111c0.071,0.051,0.15,0.092,0.227,0.135
			c0.022-0.039,0.067-0.082,0.062-0.113C10.3,286.433,10.216,286.375,10.092,286.386 M9.313,286.507
			c-0.124-0.172-0.139-0.178-0.274-0.165c-0.095,0.01-0.161,0.043-0.133,0.192C9.051,286.555,9.183,286.603,9.313,286.507
			 M7.705,286.322c0.045,0.033,0.13,0.018,0.214,0.025c-0.11-0.188-0.433-0.51-0.62-0.613c-0.046-0.023-0.11-0.016-0.165-0.021
			c-0.015,0.027-0.029,0.054-0.044,0.082C7.294,285.971,7.494,286.152,7.705,286.322 M10.82,286.486
			c0.063,0.418,0.143,0.508,0.405,0.422C11.126,286.705,11.094,286.486,10.82,286.486 M11.696,286.283
			c-0.091,0.071-0.124,0.182-0.057,0.281c0.026,0.038,0.114,0.035,0.154,0.047c0.122-0.1,0.144-0.265,0.054-0.33
			C11.812,286.255,11.726,286.255,11.696,286.283 M12.01,286.902c-0.039,0.018-0.081,0.096-0.073,0.137
			c0.03,0.149,0.078,0.299,0.26,0.354c0.176-0.17-0.005-0.3-0.049-0.438C12.138,286.923,12.043,286.887,12.01,286.902
			 M12.423,286.551c0.027,0.247,0.074,0.331,0.192,0.301c0.046-0.011,0.103-0.094,0.105-0.147
			C12.727,286.557,12.659,286.525,12.423,286.551 M12.699,287.08c0.173,0.078,0.276,0.137,0.388,0.168
			c0.036,0.01,0.104-0.045,0.134-0.088c0.016-0.022-0.012-0.109-0.039-0.121C13.046,286.984,12.905,286.923,12.699,287.08
			 M13.26,286.48c-0.031,0.023-0.007,0.119-0.009,0.184c0.077,0.002,0.164,0.021,0.228-0.008c0.032-0.015,0.022-0.121,0.038-0.234
			C13.403,286.445,13.313,286.44,13.26,286.48 M14.671,287.123c0.005,0.113,0.052,0.197,0.183,0.179
			c0.033-0.005,0.089-0.097,0.076-0.125C14.882,287.056,14.79,287.031,14.671,287.123 M7.392,282.76
			c0.146,0,0.172-0.093,0.137-0.231c-0.124-0.023-0.237-0.027-0.252,0.137C7.275,282.693,7.351,282.76,7.392,282.76 M7.987,282.871
			c-0.034,0.047-0.062,0.139-0.036,0.178c0.024,0.039,0.116,0.035,0.214,0.058c-0.009-0.096,0.004-0.17-0.027-0.214
			C8.116,282.861,8,282.849,7.987,282.871 M8.754,283.056c-0.281,0.105-0.334,0.346-0.561,0.468c0.23,0.109,0.26,0.117,0.304,0.048
			C8.589,283.428,8.677,283.281,8.754,283.056 M15.766,281.213c-0.139-0.042-0.244-0.035-0.266,0.104
			c-0.006,0.032,0.065,0.105,0.108,0.113C15.76,281.454,15.783,281.355,15.766,281.213 M14.766,281.683
			c0.051,0.035,0.124,0.036,0.217,0.058c-0.007-0.091,0.007-0.183-0.019-0.195c-0.056-0.026-0.131-0.021-0.195-0.007
			C14.758,281.541,14.743,281.667,14.766,281.683 M14.286,281.62c0.114,0.009,0.214,0.018,0.319,0.027
			c-0.039-0.273-0.094-0.354-0.22-0.33C14.238,281.348,14.263,281.464,14.286,281.62 M13.601,281.076
			c0.061-0.146,0.072-0.259-0.086-0.301c-0.091-0.025-0.166,0.017-0.171,0.123C13.336,281.067,13.456,281.078,13.601,281.076
			 M13.177,281.464c-0.119-0.005-0.262-0.08-0.305,0.122c-0.021,0.098,0.042,0.178,0.135,0.172
			C13.166,281.745,13.238,281.647,13.177,281.464 M12.59,281.815c0.011-0.103,0.038-0.193,0.02-0.204
			c-0.062-0.036-0.141-0.047-0.213-0.052c-0.01-0.001-0.052,0.123-0.033,0.14C12.414,281.745,12.49,281.767,12.59,281.815
			 M12.393,281.223c0.022,0,0.043-0.091,0.06-0.127c-0.066-0.096-0.217-0.12-0.271-0.053c-0.023,0.028-0.023,0.118-0.01,0.126
			C12.243,281.199,12.321,281.224,12.393,281.223 M11.527,281.524c0.095-0.057,0.118-0.156,0.044-0.239
			c-0.032-0.037-0.159-0.051-0.17-0.033c-0.041,0.07-0.053,0.157-0.083,0.271C11.423,281.525,11.488,281.548,11.527,281.524
			 M16.743,279.002c0.024-0.003,0.041-0.111,0.08-0.227c-0.13,0.007-0.218,0.004-0.298,0.023c-0.015,0.003-0.025,0.135-0.003,0.148
			C16.588,278.985,16.671,279.01,16.743,279.002 M17.355,279.288c-0.092,0.045-0.14,0.123-0.076,0.255
			c0.052,0.005,0.163,0.033,0.174,0.011c0.039-0.075,0.043-0.168,0.06-0.254C17.46,279.296,17.396,279.268,17.355,279.288
			 M18.013,279.432c0.254-0.003,0.256-0.006,0.338-0.485C18.081,279.099,18.012,279.206,18.013,279.432 M8.844,276.643
			c0.007,0.033,0.062,0.072,0.099,0.079c0.124,0.022,0.165-0.066,0.186-0.165c0.007-0.033,0.003-0.068,0.004-0.135
			c-0.066,0.009-0.103,0.01-0.136,0.021C8.896,276.473,8.824,276.53,8.844,276.643 M9.035,275.873
			c0.17,0.041,0.185-0.083,0.195-0.25c-0.146-0.022-0.269-0.052-0.306,0.107C8.915,275.77,8.987,275.863,9.035,275.873
			 M9.256,276.097c-0.028,0.067-0.017,0.149-0.021,0.225c0.074-0.003,0.157,0.01,0.221-0.017c0.023-0.01,0.005-0.119,0.005-0.207
			C9.374,276.096,9.263,276.076,9.256,276.097 M10.258,276.217c-0.019,0-0.037,0.088-0.075,0.185
			c0.112-0.007,0.187-0.001,0.253-0.021c0.021-0.006,0.023-0.078,0.035-0.12C10.397,276.244,10.327,276.216,10.258,276.217
			 M10.866,276.98c-0.004,0.035,0.089,0.079,0.166,0.141c0.103-0.295,0.103-0.295,0.068-0.496
			C10.931,276.687,10.881,276.829,10.866,276.98 M11.235,272.792c-0.029,0.038-0.024,0.102-0.042,0.189
			c0.104,0.01,0.186,0.037,0.253,0.016c0.026-0.008,0.048-0.128,0.028-0.18C11.437,272.724,11.299,272.713,11.235,272.792
			 M11.881,272.563c-0.009,0.151,0.095,0.169,0.238,0.156c0.013-0.088,0.025-0.176,0.042-0.291
			C11.988,272.397,11.887,272.421,11.881,272.563 M12.099,273.363c-0.004,0.034,0.097,0.122,0.132,0.113
			c0.164-0.04,0.217-0.241,0.118-0.424C12.188,273.093,12.12,273.217,12.099,273.363 M12.783,272.705
			c-0.048-0.023-0.114-0.005-0.234-0.004c0.046,0.113,0.06,0.185,0.102,0.231c0.031,0.036,0.112,0.063,0.149,0.045
			c0.04-0.018,0.073-0.094,0.071-0.143C12.868,272.788,12.825,272.725,12.783,272.705 M12.997,273.551
			c-0.095-0.016-0.166,0.022-0.172,0.121c-0.004,0.05,0.031,0.104,0.05,0.153c0.066-0.033,0.139-0.057,0.194-0.103
			c0.026-0.022,0.02-0.086,0.029-0.134C13.058,273.573,13.03,273.556,12.997,273.551 M13.408,273.279
			c-0.013,0.034,0.06,0.137,0.107,0.148c0.15,0.036,0.227-0.04,0.208-0.234C13.589,273.16,13.464,273.13,13.408,273.279
			 M13.812,273.784c-0.015,0.037,0.067,0.159,0.121,0.172c0.18,0.043,0.181-0.087,0.178-0.22
			C13.996,273.687,13.876,273.632,13.812,273.784 M14.275,273.666c-0.04,0.032-0.04,0.117-0.069,0.224
			c0.12-0.013,0.197-0.02,0.272-0.028c-0.006-0.063,0.011-0.149-0.025-0.185C14.421,273.643,14.312,273.638,14.275,273.666
			 M14.575,273.301c-0.007,0.065-0.04,0.143-0.016,0.189c0.022,0.04,0.111,0.043,0.208,0.076c-0.002-0.099,0.021-0.183-0.011-0.217
			C14.72,273.309,14.637,273.315,14.575,273.301 M15.258,273.71c-0.033-0.001-0.095,0.051-0.097,0.081
			c-0.008,0.163,0.104,0.152,0.219,0.141C15.427,273.805,15.405,273.717,15.258,273.71 M17.131,272.317
			c-0.031,0.011-0.038,0.094-0.07,0.184c0.112,0.001,0.199,0.024,0.264-0.006c0.032-0.015,0.023-0.121,0.035-0.187
			C17.282,272.309,17.2,272.297,17.131,272.317 M20.818,286.478c-0.101,0.115-0.173,0.167-0.194,0.234
			c-0.014,0.043,0.035,0.14,0.079,0.158c0.084,0.035,0.17,0.004,0.169-0.109C20.87,286.693,20.846,286.626,20.818,286.478
			 M21.24,285.962c-0.025,0.064-0.038,0.148-0.021,0.215c0.01,0.035,0.097,0.048,0.196,0.093c-0.013-0.174-0.011-0.248-0.031-0.317
			C21.382,285.941,21.247,285.941,21.24,285.962 M20.254,287.433c0.03,0.025,0.081,0.025,0.167,0.049
			c-0.012-0.111-0.01-0.189-0.032-0.258c-0.007-0.021-0.085-0.044-0.117-0.031C20.187,287.224,20.178,287.369,20.254,287.433
			 M19.665,287.349c0.041,0.053,0.128,0.066,0.239,0.122c-0.002-0.116,0.023-0.202-0.009-0.239
			c-0.046-0.051-0.143-0.104-0.198-0.089C19.589,287.176,19.619,287.291,19.665,287.349 M19.526,287.921
			c-0.171,0.111-0.154,0.246-0.136,0.408c0.09-0.008,0.157-0.015,0.237-0.021C19.635,288.167,19.681,288.037,19.526,287.921
			 M19.183,287.891c0.047-0.198,0.019-0.327-0.095-0.341c-0.049-0.006-0.134,0.054-0.153,0.102
			C18.888,287.781,18.956,287.839,19.183,287.891 M18.858,287.147c0.038-0.043,0.038-0.118,0.065-0.222
			c-0.104,0.021-0.19,0.013-0.226,0.052c-0.03,0.034-0.001,0.12,0.002,0.185C18.754,287.158,18.832,287.176,18.858,287.147
			 M18.668,288.378c-0.01,0.039,0.031,0.127,0.062,0.136c0.043,0.011,0.136-0.026,0.145-0.06c0.029-0.106,0.028-0.222,0.04-0.344
			C18.719,288.137,18.696,288.266,18.668,288.378 M18.208,288.289c-0.007-0.094-0.012-0.16-0.017-0.226
			c-0.062,0.009-0.157-0.009-0.181,0.024c-0.027,0.043-0.012,0.134,0.018,0.186C18.043,288.298,18.13,288.283,18.208,288.289
			 M17.622,288.728c0.036-0.061,0.038-0.139,0.063-0.264c-0.104,0.039-0.179,0.044-0.195,0.076c-0.028,0.056-0.02,0.129-0.025,0.193
			C17.518,288.734,17.608,288.753,17.622,288.728 M16.876,288.3c0.091,0.006,0.181,0.013,0.361,0.023
			c-0.106-0.121-0.148-0.215-0.2-0.221c-0.06-0.007-0.126,0.062-0.191,0.102C16.858,288.236,16.868,288.267,16.876,288.3
			 M16.11,288.158c0.012,0.022,0.099,0.01,0.185,0.016c-0.016-0.096-0.014-0.164-0.043-0.215c-0.01-0.019-0.132-0.006-0.146,0.021
			C16.081,288.029,16.084,288.106,16.11,288.158"/>
	</g>
</g>
</svg>
