<?xml version="1.0" encoding="UTF-8"?>
<svg width="490px" height="122px" viewBox="0 0 490 122" version="1.1" xmlns="http://www.w3.org/2000/svg" xmlns:xlink="http://www.w3.org/1999/xlink">
    <!-- Generator: Sketch 50.2 (55047) - http://www.bohemiancoding.com/sketch -->
    <title>Group</title>
    <desc>Created with Sketch.</desc>
    <defs></defs>
    <g id="Page-1" stroke="none" stroke-width="1" fill="none" fill-rule="evenodd">
        <g id="Artboard-1" fill="#FEFEFE">
            <g id="Group">
                <g id="Group-9" transform="translate(27.000000, 16.047000)">
                    <path d="M105.9718,3.2092 L105.9718,14.6782 L107.6078,14.6782 L107.6078,9.6142 L109.8218,9.6142 L109.8218,14.6782 L111.4588,14.6782 L111.4588,3.2092 L109.8218,3.2092 L109.8218,8.1422 L107.6078,8.1422 L107.6078,3.2092 L105.9718,3.2092 Z M118.8988,14.6782 L116.3918,3.2092 L114.9508,3.2092 L112.4448,14.6782 L114.0808,14.6782 L114.6218,12.2202 L116.7198,12.2202 L117.2618,14.6782 L118.8988,14.6782 Z M116.5238,10.7632 L114.7878,10.7632 L115.6388,6.4052 L116.5238,10.7632 Z M118.5058,3.2092 L121.0788,11.1902 L120.8658,12.1572 C120.8178,12.3702 120.6698,12.7142 120.5388,12.8452 C120.3908,13.0092 120.1128,13.1242 119.7848,13.1242 L119.3748,13.1242 L119.3748,14.6782 L119.9648,14.6782 C120.3908,14.6782 120.8828,14.6622 121.3748,14.3682 C122.3408,13.7792 122.5548,12.3212 122.8818,11.0432 L124.8318,3.2092 L123.1438,3.2092 L122.4238,6.4872 C122.2758,7.1592 122.0948,8.2072 121.9968,8.8302 L121.9478,8.8302 L120.3748,3.2092 L118.5058,3.2092 Z M128.9618,3.2092 L128.9618,8.4542 C128.6508,8.6342 128.3548,8.6822 128.0438,8.6822 C127.7978,8.6822 127.4688,8.6342 127.2398,8.3882 C126.9278,8.0432 126.9278,7.4042 126.9278,7.0612 L126.9278,3.2092 L125.2908,3.2092 L125.2908,7.4212 C125.2908,7.9782 125.3398,8.8792 125.8648,9.4682 C126.0618,9.6972 126.6018,10.1552 127.6998,10.1552 C128.2238,10.1552 128.6178,10.0572 128.9618,9.9262 L128.9618,14.6782 L130.5988,14.6782 L130.5988,3.2092 L128.9618,3.2092 Z M132.4028,3.2092 L132.4028,14.6782 L134.0388,14.6782 L134.0388,9.6142 L136.2538,9.6142 L136.2538,14.6782 L137.8918,14.6782 L137.8918,3.2092 L136.2538,3.2092 L136.2538,8.1422 L134.0388,8.1422 L134.0388,3.2092 L132.4028,3.2092 Z M139.5318,11.6652 C139.5318,12.5332 139.5968,13.3692 140.3818,14.1052 C140.8738,14.5642 141.5448,14.8422 142.3978,14.8422 C143.2508,14.8422 143.9228,14.5642 144.4138,14.1052 C145.1988,13.3692 145.2638,12.5332 145.2638,11.6652 L145.2638,6.2232 C145.2638,5.3542 145.1988,4.5192 144.4138,3.7822 C143.9228,3.3232 143.2508,3.0452 142.3978,3.0452 C141.5448,3.0452 140.8738,3.3232 140.3818,3.7822 C139.5968,4.5192 139.5318,5.3542 139.5318,6.2232 L139.5318,11.6652 Z M143.6278,11.9102 C143.6278,12.2542 143.5948,12.5992 143.2838,12.9112 C143.1028,13.0912 142.8078,13.2392 142.3978,13.2392 C141.9878,13.2392 141.6928,13.0912 141.5128,12.9112 C141.2008,12.5992 141.1678,12.2542 141.1678,11.9102 L141.1678,5.9772 C141.1678,5.6332 141.2008,5.2892 141.5128,4.9772 C141.6928,4.7972 141.9878,4.6492 142.3978,4.6492 C142.8078,4.6492 143.1028,4.7972 143.2838,4.9772 C143.5948,5.2892 143.6278,5.6332 143.6278,5.9772 L143.6278,11.9102 Z M146.6578,10.4012 L150.3298,10.4012 L150.3298,8.9282 L146.6578,8.9282 L146.6578,10.4012 Z M151.8868,3.2092 L151.8868,14.6782 L153.5238,14.6782 L153.5238,4.6822 L155.6558,4.6822 L155.6558,14.6782 L157.2928,14.6782 L157.2928,3.2092 L151.8868,3.2092 Z M158.9338,11.6652 C158.9338,12.5332 158.9988,13.3692 159.7838,14.1052 C160.2748,14.5642 160.9478,14.8422 161.7998,14.8422 C162.6528,14.8422 163.3248,14.5642 163.8148,14.1052 C164.6008,13.3692 164.6658,12.5332 164.6658,11.6652 L164.6658,6.2232 C164.6658,5.3542 164.6008,4.5192 163.8148,3.7822 C163.3248,3.3232 162.6528,3.0452 161.7998,3.0452 C160.9478,3.0452 160.2748,3.3232 159.7838,3.7822 C158.9988,4.5192 158.9338,5.3542 158.9338,6.2232 L158.9338,11.6652 Z M163.0298,11.9102 C163.0298,12.2542 162.9968,12.5992 162.6858,12.9112 C162.5048,13.0912 162.2098,13.2392 161.7998,13.2392 C161.3898,13.2392 161.0948,13.0912 160.9148,12.9112 C160.6028,12.5992 160.5698,12.2542 160.5698,11.9102 L160.5698,5.9772 C160.5698,5.6332 160.6028,5.2892 160.9148,4.9772 C161.0948,4.7972 161.3898,4.6492 161.7998,4.6492 C162.2098,4.6492 162.5048,4.7972 162.6858,4.9772 C162.9968,5.2892 163.0298,5.6332 163.0298,5.9772 L163.0298,11.9102 Z M166.3068,3.2092 L166.3068,14.6782 L167.9438,14.6782 L167.9438,4.6822 L170.0758,4.6822 L170.0758,14.6782 L171.7128,14.6782 L171.7128,3.2092 L166.3068,3.2092 Z M172.5828,3.2092 L175.1548,11.1902 L174.9418,12.1572 C174.8928,12.3702 174.7448,12.7142 174.6148,12.8452 C174.4668,13.0092 174.1878,13.1242 173.8608,13.1242 L173.4508,13.1242 L173.4508,14.6782 L174.0398,14.6782 C174.4668,14.6782 174.9588,14.6622 175.4508,14.3682 C176.4178,13.7792 176.6298,12.3212 176.9578,11.0432 L178.9078,3.2092 L177.2198,3.2092 L176.4988,6.4872 C176.3518,7.1592 176.1708,8.2072 176.0728,8.8302 L176.0238,8.8302 L174.4498,3.2092 L172.5828,3.2092 Z M184.6098,3.2092 L180.0228,3.2092 L179.9738,6.2882 C179.9568,7.7642 179.9088,8.4852 179.8588,9.3862 C179.8258,9.9602 179.7118,11.6312 179.5308,12.2052 C179.4988,12.3202 179.3508,12.7292 178.9578,12.9602 C178.7118,13.1072 178.4818,13.1242 178.3188,13.1242 L178.1378,13.1242 L178.1378,14.6782 L178.5148,14.6782 C179.1868,14.6782 179.8258,14.5642 180.4308,13.9092 C180.9388,13.3522 181.1038,12.8122 181.2178,12.2542 C181.2828,11.9442 181.3808,11.3372 181.4628,10.1242 C181.5278,9.2222 181.5448,8.2882 181.6098,6.2882 L181.6598,4.6822 L182.9718,4.6822 L182.9718,14.6782 L184.6098,14.6782 L184.6098,3.2092 Z M191.7198,3.2092 L189.6578,3.2092 C188.8208,3.2092 187.6078,3.1602 186.8388,4.1092 C186.4618,4.5672 186.2338,5.2552 186.2338,6.1082 L186.2338,6.9772 C186.2338,7.6002 186.4618,8.3222 186.7568,8.7322 C186.9038,8.9282 187.1498,9.1892 187.5428,9.3532 L185.8398,14.6782 L187.5918,14.6782 L189.0668,9.7292 L190.0848,9.7292 L190.0848,14.6782 L191.7198,14.6782 L191.7198,3.2092 Z M190.0848,4.6822 L190.0848,8.2562 L189.2318,8.2562 C188.8708,8.2562 188.5258,8.1752 188.2138,7.8802 C187.8868,7.5682 187.8698,7.2902 187.8698,6.8462 L187.8698,6.0262 C187.8698,5.5842 188.0348,5.1902 188.2478,4.9772 C188.5758,4.6492 188.9698,4.6822 189.3128,4.6822 L190.0848,4.6822 Z M193.5258,14.6782 L195.1608,14.6782 L195.1608,10.1392 L196.1298,10.1392 C196.8348,10.1392 197.7208,10.0082 198.3908,9.2392 C199.0298,8.5032 199.0948,7.5512 199.0948,6.9122 L199.0948,6.5842 C199.0948,5.7312 199.0128,4.7312 198.2608,3.9632 C197.5398,3.2412 196.6708,3.2092 195.9658,3.2092 L193.5258,3.2092 L193.5258,14.6782 Z M195.1608,4.6822 L195.7358,4.6822 C196.1788,4.6822 196.6378,4.6662 197.0158,4.9772 C197.4748,5.3552 197.4578,5.9122 197.4578,6.3052 L197.4578,7.0602 C197.4578,7.4692 197.4908,7.8632 197.1458,8.2402 C196.8018,8.6162 196.3588,8.6662 196.0468,8.6662 L195.1608,8.6662 L195.1608,4.6822 Z M200.4078,3.2092 L200.4078,14.6782 L202.0438,14.6782 L202.0438,9.6142 L204.2588,9.6142 L204.2588,14.6782 L205.8958,14.6782 L205.8958,3.2092 L204.2588,3.2092 L204.2588,8.1422 L202.0438,8.1422 L202.0438,3.2092 L200.4078,3.2092 Z M207.6998,3.2092 L207.6998,14.6782 L210.1898,14.6782 C211.6978,14.6782 212.3368,14.0562 212.6468,13.5982 C213.0888,12.9432 213.1218,12.3042 213.1218,11.7472 L213.1218,10.4012 C213.1218,9.9762 213.1218,9.1572 212.4178,8.5012 C211.6818,7.8142 210.7808,7.8472 210.1408,7.8472 L209.3358,7.8472 L209.3358,3.2092 L207.6998,3.2092 Z M209.3358,9.3202 L210.1728,9.3202 C210.5348,9.3202 210.7808,9.4022 211.0428,9.6152 C211.4028,9.9262 211.4848,10.3202 211.4848,10.8772 L211.4848,11.5002 C211.4848,13.1072 210.5018,13.2052 210.0738,13.2052 L209.3358,13.2052 L209.3358,9.3202 Z M214.4508,14.6782 L216.0878,14.6782 L216.0878,3.2092 L214.4508,3.2092 L214.4508,14.6782 Z M217.8918,3.2092 L217.8918,14.6782 L219.5288,14.6782 L219.5288,13.3692 L222.2348,7.6342 L222.2348,14.6782 L223.8708,14.6782 L223.8708,3.2092 L222.2348,3.2092 L222.2348,4.5202 L219.5288,10.2552 L219.5288,3.2092 L217.8918,3.2092 Z M222.8878,0.4562 L221.5788,0.4562 L221.5788,0.6042 C221.5788,0.7352 221.5628,0.9142 221.3818,1.0622 C221.2338,1.1922 221.0708,1.2092 220.8898,1.2092 C220.7088,1.2092 220.5458,1.1922 220.3978,1.0622 C220.2158,0.9142 220.2008,0.7352 220.2008,0.6042 L220.2008,0.4562 L218.8908,0.4562 L218.8908,0.6532 C218.8908,1.3082 219.1368,1.7332 219.3828,1.9622 C219.7098,2.2742 220.2498,2.4212 220.8898,2.4212 C221.5298,2.4212 222.0698,2.2742 222.3968,1.9622 C222.6428,1.7332 222.8878,1.3082 222.8878,0.6532 L222.8878,0.4562 Z M234.2768,8.1252 L234.2768,3.2092 L232.6398,3.2092 L232.6398,8.1252 L232.0338,8.1252 C231.8038,8.1252 231.5898,8.0282 231.4258,7.7812 C231.2128,7.4862 231.1478,7.0762 231.0648,6.2722 L230.9508,5.2402 C230.8848,4.6172 230.7868,3.9302 230.2948,3.5042 C229.8198,3.0942 229.1978,3.0782 228.7728,3.0782 L228.4778,3.0782 L228.4778,4.5512 L228.7388,4.5512 C228.8708,4.5512 229.0518,4.6322 229.1658,4.7312 C229.3448,4.8962 229.4108,5.2072 229.4918,5.9452 L229.6078,7.0432 C229.6568,7.4862 229.6898,7.8962 229.8358,8.2722 C229.9348,8.5012 230.0328,8.6332 230.1958,8.7472 L228.4948,14.6812 L230.2778,14.6812 L231.6728,9.5332 L232.6398,9.5332 L232.6398,14.6812 L234.2768,14.6812 L234.2768,9.5332 L235.2448,9.5332 L236.6388,14.6812 L238.4218,14.6812 L236.7198,8.7472 C236.8848,8.6332 236.9828,8.5012 237.0808,8.2722 C237.2288,7.8962 237.2608,7.4862 237.3088,7.0432 L237.4248,5.9452 C237.5068,5.2072 237.5718,4.8962 237.7518,4.7312 C237.8658,4.6322 238.0468,4.5512 238.1768,4.5512 L238.4388,4.5512 L238.4388,3.0782 L238.1448,3.0782 C237.7188,3.0782 237.0968,3.0942 236.6208,3.5042 C236.1308,3.9302 236.0318,4.6172 235.9658,5.2402 L235.8518,6.2722 C235.7688,7.0762 235.7038,7.4862 235.4908,7.7812 C235.3258,8.0282 235.1128,8.1252 234.8838,8.1252 L234.2768,8.1252 Z M238.7018,3.2092 L241.2758,11.1902 L241.0618,12.1572 C241.0128,12.3702 240.8648,12.7142 240.7348,12.8452 C240.5868,13.0092 240.3078,13.1242 239.9808,13.1242 L239.5698,13.1242 L239.5698,14.6782 L240.1598,14.6782 C240.5868,14.6782 241.0788,14.6622 241.5698,14.3682 C242.5368,13.7792 242.7488,12.3212 243.0768,11.0432 L245.0278,3.2092 L243.3398,3.2092 L242.6188,6.4872 C242.4708,7.1592 242.2908,8.2072 242.1918,8.8302 L242.1428,8.8302 L240.5698,3.2092 L238.7018,3.2092 Z M245.7328,14.6782 L247.3698,14.6782 L247.3698,10.1392 L248.3368,10.1392 C249.0428,10.1392 249.9278,10.0082 250.5978,9.2392 C251.2368,8.5032 251.3018,7.5512 251.3018,6.9122 L251.3018,6.5842 C251.3018,5.7312 251.2208,4.7312 250.4678,3.9632 C249.7468,3.2412 248.8788,3.2092 248.1728,3.2092 L245.7328,3.2092 L245.7328,14.6782 Z M247.3698,4.6822 L247.9438,4.6822 C248.3858,4.6822 248.8458,4.6662 249.2228,4.9772 C249.6818,5.3552 249.6658,5.9122 249.6658,6.3052 L249.6658,7.0602 C249.6658,7.4692 249.6978,7.8632 249.3548,8.2402 C249.0098,8.6162 248.5678,8.6662 248.2558,8.6662 L247.3698,8.6662 L247.3698,4.6822 Z M252.6158,3.2092 L252.6158,14.6782 L254.2528,14.6782 L254.2528,9.6142 L256.4668,9.6142 L256.4668,14.6782 L258.1028,14.6782 L258.1028,3.2092 L256.4668,3.2092 L256.4668,8.1422 L254.2528,8.1422 L254.2528,3.2092 L252.6158,3.2092 Z M265.5428,14.6782 L263.0348,3.2092 L261.5948,3.2092 L259.0878,14.6782 L260.7238,14.6782 L261.2658,12.2202 L263.3628,12.2202 L263.9048,14.6782 L265.5428,14.6782 Z M263.1658,10.7632 L261.4308,10.7632 L262.2828,6.4052 L263.1658,10.7632 Z M271.8838,3.2092 L267.2978,3.2092 L267.2488,6.2882 C267.2318,7.7642 267.1828,8.4852 267.1338,9.3862 C267.1008,9.9602 266.9858,11.6312 266.8058,12.2052 C266.7728,12.3202 266.6258,12.7292 266.2318,12.9602 C265.9868,13.1072 265.7568,13.1242 265.5938,13.1242 L265.4118,13.1242 L265.4118,14.6782 L265.7908,14.6782 C266.4618,14.6782 267.1008,14.5642 267.7068,13.9092 C268.2138,13.3522 268.3778,12.8122 268.4928,12.2542 C268.5578,11.9442 268.6558,11.3372 268.7378,10.1242 C268.8028,9.2222 268.8198,8.2882 268.8848,6.2882 L268.9338,4.6822 L270.2468,4.6822 L270.2468,14.6782 L271.8838,14.6782 L271.8838,3.2092 Z" id="Fill-1"></path>
                    <path d="M56.5124,48.8452 C57.1184,48.8452 58.2214,49.0712 58.9764,50.5672 L60.2454,53.1412 L61.4184,55.4912 L61.9534,54.4202 L63.8544,50.5672 C64.5994,49.0602 65.6494,48.8962 66.2324,48.8962 C66.4304,48.8962 67.1644,48.9772 67.3574,49.0232 C68.3104,49.2632 69.4144,50.4152 69.4144,52.1982 L69.4144,68.9752 L80.1604,68.9752 L80.1604,33.6392 L68.2664,33.6392 C67.4474,35.2682 64.2244,41.6082 64.1924,41.6722 C63.3944,43.2312 61.9324,43.4242 61.4234,43.3832 C60.6894,43.3352 59.5544,43.3352 58.5644,41.6142 C58.1094,40.8282 55.8334,36.1512 55.8334,36.1512 L54.5534,33.6392 L43.6824,33.6392 L43.6824,68.9752 L53.4184,68.9752 L53.4184,52.1982 C53.4184,49.9482 55.1104,49.0282 55.5644,48.9172 C55.6894,48.8772 56.2604,48.8452 56.5124,48.8452" id="Fill-3"></path>
                    <path d="M16.0712,48.8452 C16.6732,48.8452 17.7822,49.0712 18.5272,50.5672 L19.8062,53.1412 L20.9742,55.4912 L21.5082,54.4202 L23.4132,50.5672 C24.1592,49.0602 25.2022,48.8962 25.7882,48.8962 C25.9972,48.8962 26.7192,48.9772 26.9182,49.0232 C27.8652,49.2632 28.9742,50.4152 28.9742,52.1982 L28.9742,68.9752 L39.7222,68.9752 L39.7222,33.6392 L27.8282,33.6392 C27.0062,35.2682 23.7802,41.6082 23.7422,41.6722 C22.9482,43.2312 21.4832,43.4242 20.9842,43.3832 C20.2482,43.3352 19.1072,43.3352 18.1222,41.6142 C17.6672,40.8282 15.3862,36.1512 15.3862,36.1512 L14.1142,33.6392 L3.2412,33.6392 L3.2412,68.9752 L12.9682,68.9752 L12.9682,52.1982 C12.9682,49.9482 14.6552,49.0282 15.1092,48.9172 C15.2492,48.8772 15.8192,48.8452 16.0712,48.8452" id="Fill-5"></path>
                    <path d="M1.3106,71.9956 L14.9676,71.9956 C15.4556,71.9956 15.8516,71.5776 15.8516,71.0746 L15.8516,52.3216 C15.8516,51.9466 15.9346,51.8446 15.9346,51.8446 C15.9346,51.8446 15.9516,51.8336 15.9726,51.8276 C16.0656,51.8066 16.2026,51.9946 16.3126,52.1976 L17.6046,54.8276 L20.2106,60.0636 C20.3576,60.3746 20.6546,60.5676 20.9836,60.5676 C21.3196,60.5676 21.6196,60.3746 21.7746,60.0636 L23.7146,56.1336 L25.6676,52.1976 C25.8366,51.8826 25.9466,51.8166 25.9566,51.8166 C25.9566,51.8166 25.9676,51.8166 25.9976,51.8226 C26.0906,51.8496 26.1336,52.0856 26.1336,52.3216 L26.1336,71.0746 C26.1336,71.5776 26.5266,71.9956 27.0116,71.9956 L41.7006,71.9956 L41.7166,71.9956 L41.7326,71.9956 L55.3506,71.9956 C55.8436,71.9956 56.2346,71.5776 56.2346,71.0746 L56.2346,52.3216 C56.2346,51.9466 56.3196,51.8446 56.3196,51.8446 C56.3196,51.8446 56.3306,51.8336 56.3526,51.8276 C56.4486,51.8066 56.5876,51.9946 56.6946,52.1976 L60.5986,60.0636 C60.7386,60.3746 61.0536,60.5676 61.3756,60.5676 C61.7066,60.5676 62.0016,60.3746 62.1576,60.0636 L64.1006,56.1336 L66.0666,52.1976 C66.2166,51.8826 66.3336,51.8166 66.3446,51.8166 C66.3446,51.8166 66.3556,51.8166 66.3776,51.8226 C66.4736,51.8496 66.5216,52.0856 66.5216,52.3216 L66.5216,71.0746 C66.5216,71.5776 66.9076,71.9956 67.4006,71.9956 L81.5856,71.9956 L82.1426,71.9956 L82.2816,71.9956 C82.7686,71.9956 83.1546,71.5776 83.1546,71.0746 L83.1546,31.7356 C83.1546,31.2386 82.7686,30.8206 82.2816,30.8206 L81.5856,30.8206 L67.3786,30.8206 C66.8106,30.8256 66.3236,31.1656 66.0556,31.7356 L61.8356,40.0066 C61.7506,40.1996 61.5896,40.4156 61.3916,40.4156 C61.2036,40.4156 61.0056,40.2056 60.9096,40.0066 L56.7006,31.7356 C56.3686,31.0956 55.8166,30.8446 55.3986,30.8206 L55.3506,30.8206 L41.7326,30.8206 C41.7276,30.8206 41.7226,30.8206 41.7166,30.8256 C41.7116,30.8206 41.7066,30.8206 41.7006,30.8206 L27.0016,30.8206 C26.4306,30.8256 25.9356,31.1656 25.6676,31.7356 L21.4506,40.0066 C21.3626,40.1996 21.2046,40.4156 21.0056,40.4156 C20.8186,40.4156 20.6226,40.2056 20.5286,40.0066 L16.3176,31.7356 C15.9836,31.0956 15.4346,30.8446 15.0136,30.8206 L14.9676,30.8206 L1.3106,30.8206 C0.8306,30.8206 0.4366,31.2386 0.4366,31.7356 L0.4366,71.0746 C0.4366,71.5776 0.8306,71.9956 1.3106,71.9956 Z M42.6166,32.5426 L55.2116,32.5426 C55.5656,33.2406 59.3936,40.7576 59.3936,40.7576 C59.7316,41.4266 60.4436,42.1386 61.4286,42.1386 C61.8196,42.1386 62.7896,42.0016 63.4266,40.7576 C63.4266,40.7576 67.3576,33.0426 67.6036,32.5426 L81.2376,32.5426 L81.2376,70.0576 L68.3106,70.0576 L68.3106,52.2136 C68.3106,50.4526 67.1756,50.0266 66.8316,49.9426 C66.7206,49.9166 66.5646,49.8926 66.3826,49.8926 C65.8516,49.8926 65.0916,50.1226 64.5346,51.2586 L62.5806,55.1916 L61.8096,56.7436 L61.7346,56.9046 L61.4136,57.5476 L61.0856,56.9046 L61.0116,56.7436 L59.5916,53.8846 L58.2956,51.2586 C57.7236,50.1116 56.9306,49.8976 56.4056,49.8976 C56.2236,49.8976 56.0626,49.9276 55.9766,49.9486 C55.5386,50.0636 54.5106,50.5026 54.5106,52.2136 L54.5106,70.0576 L42.6166,70.0576 L42.6166,32.5426 Z M2.1636,32.5506 L14.7546,32.5506 C15.1096,33.2456 18.9386,40.7616 18.9386,40.7616 C19.2846,41.4266 19.9906,42.1386 20.9836,42.1386 C21.3676,42.1386 22.3506,42.0086 22.9796,40.7616 C22.9796,40.7616 26.9066,33.0426 27.1636,32.5506 L40.7906,32.5506 L40.7906,70.0576 L27.8596,70.0576 L27.8596,52.2196 C27.8596,50.4526 26.7306,50.0316 26.3796,49.9426 C26.2696,49.9166 26.1126,49.8926 25.9356,49.8926 C25.4106,49.8926 24.6526,50.1226 24.0776,51.2586 L22.1306,55.1916 L21.3576,56.7436 L21.2866,56.9046 L20.9626,57.5576 L20.6396,56.9046 L20.5666,56.7436 L19.1426,53.8846 L17.8416,51.2586 C17.2656,50.1176 16.4696,49.8976 15.9616,49.8976 C15.7746,49.8976 15.6216,49.9276 15.5276,49.9486 C15.0886,50.0636 14.0686,50.5026 14.0686,52.2196 L14.0686,70.0576 L2.1636,70.0576 L2.1636,32.5506 Z" id="Fill-7"></path>
                </g>
                <polygon id="Fill-10" points="46.9692 15.658 46.9692 17.437 120.2172 17.437 120.2172 120.27 17.3862 120.27 17.3862 46.97 15.6022 46.97 15.6022 122.047 121.9952 122.047 121.9952 15.658"></polygon>
                <path d="M20.599,3.307 C20.882,3.59 21.254,3.73 21.712,3.728 C21.868,3.728 21.991,3.719 22.08,3.701 C22.169,3.683 22.265,3.656 22.367,3.623 C22.452,3.595 22.532,3.56 22.611,3.521 C22.689,3.481 22.759,3.446 22.819,3.415 L22.816,2.572 L22.741,2.572 C22.701,2.613 22.652,2.659 22.596,2.711 C22.541,2.762 22.476,2.813 22.404,2.864 C22.337,2.911 22.255,2.956 22.157,2.996 C22.059,3.035 21.956,3.055 21.847,3.056 C21.744,3.056 21.639,3.036 21.533,2.997 C21.43,2.958 21.334,2.893 21.249,2.804 C21.161,2.711 21.09,2.588 21.035,2.437 C20.98,2.285 20.952,2.098 20.952,1.875 C20.95,1.663 20.975,1.479 21.027,1.322 C21.078,1.167 21.145,1.042 21.226,0.95 C21.314,0.849 21.409,0.777 21.508,0.736 C21.605,0.695 21.715,0.674 21.833,0.673 C21.933,0.673 22.029,0.69 22.119,0.725 C22.211,0.761 22.295,0.805 22.372,0.856 C22.448,0.906 22.516,0.959 22.577,1.013 C22.637,1.066 22.687,1.113 22.726,1.15 L22.809,1.15 L22.807,0.295 C22.752,0.265 22.681,0.229 22.594,0.187 C22.505,0.145 22.424,0.113 22.349,0.09 C22.254,0.061 22.154,0.039 22.05,0.024 C21.957,0.01 21.854,0.002 21.741,0.001 L21.699,0.001 C21.246,0.003 20.879,0.149 20.599,0.441 C20.576,0.464 20.554,0.488 20.532,0.515 C20.244,0.854 20.102,1.307 20.105,1.876 C20.106,2.466 20.252,2.923 20.542,3.246 C20.56,3.267 20.579,3.288 20.599,3.307" id="Fill-11"></path>
                <polygon id="Fill-13" points="38.6101 16.3478 38.7991 17.2238 39.7711 16.9728 40.2091 16.8588 40.4661 18.0538 39.7711 18.2328 39.0561 18.4178 39.2451 19.2948 39.7711 19.1588 42.3101 18.4998 42.4261 18.4698 42.3101 17.9338 42.2371 17.5938 41.0731 17.8948 40.8161 16.7018 41.9811 16.3998 41.7911 15.5228 39.7711 16.0458"></polygon>
                <polygon id="Fill-14" points="42.6089 21.0912 42.6119 20.2052 42.3109 20.2032 39.7709 20.1952 39.3419 20.1932 39.3409 21.0272 39.7709 21.3042 41.4899 22.4132 39.7709 22.4062 39.3359 22.4042 39.3329 23.2912 39.7709 23.2932 42.3109 23.3032 42.6019 23.3042 42.6049 22.3662 42.3109 22.1712 40.6619 21.0842 42.3109 21.0902"></polygon>
                <polygon id="Fill-15" points="14.5012 5.105 14.9692 2.417 14.9882 2.474 15.6852 4.646 16.1852 4.453 16.4472 4.352 16.1852 3.535 15.3602 0.968 14.9882 1.112 14.5552 1.28 14.1082 3.719 13.4602 1.703 12.6972 1.998 13.7862 5.383"></polygon>
                <path d="M17.4111,3.704 C17.7411,3.972 18.1461,4.063 18.6241,3.974 C18.7771,3.947 18.8971,3.915 18.9811,3.882 C19.0661,3.848 19.1571,3.805 19.2511,3.753 C19.3281,3.712 19.4041,3.664 19.4751,3.612 C19.5461,3.558 19.6091,3.511 19.6621,3.47 L19.5381,2.638 L19.4641,2.652 C19.4311,2.699 19.3901,2.753 19.3431,2.814 C19.2961,2.874 19.2421,2.936 19.1771,2.997 C19.1181,3.057 19.0441,3.116 18.9541,3.173 C18.8641,3.228 18.7661,3.267 18.6611,3.286 C18.5591,3.305 18.4541,3.304 18.3461,3.283 C18.2371,3.263 18.1351,3.215 18.0381,3.142 C17.9391,3.066 17.8511,2.958 17.7761,2.818 C17.7001,2.678 17.6461,2.499 17.6131,2.279 C17.5811,2.068 17.5791,1.882 17.6071,1.719 C17.6341,1.556 17.6811,1.423 17.7481,1.317 C17.8211,1.201 17.9021,1.114 17.9931,1.055 C18.0831,0.998 18.1851,0.958 18.3021,0.936 C18.3991,0.919 18.4951,0.919 18.5901,0.938 C18.6851,0.957 18.7741,0.985 18.8561,1.022 C18.9371,1.059 19.0121,1.1 19.0781,1.141 C19.1441,1.184 19.2011,1.219 19.2451,1.251 L19.3261,1.235 L19.2001,0.392 C19.1421,0.372 19.0671,0.349 18.9751,0.323 C18.8831,0.298 18.7981,0.281 18.7221,0.269 C18.6241,0.259 18.5241,0.254 18.4201,0.258 C18.3161,0.26 18.2001,0.274 18.0741,0.297 C17.5941,0.386 17.2381,0.623 17.0051,1.009 C16.7731,1.394 16.7001,1.868 16.7851,2.428 C16.8721,3.011 17.0811,3.436 17.4111,3.704" id="Fill-16"></path>
                <polygon id="Fill-18" points="29.056 5.2872 29.263 4.6422 27.948 4.1332 28.224 3.2772 29.435 3.7462 29.642 3.1012 28.43 2.6332 28.622 2.0402 29.784 2.4902 29.935 2.5492 30.143 1.9032 29.784 1.7632 28.059 1.0952 27.747 2.0632 26.971 4.4792 27.747 4.7802"></polygon>
                <path d="M33.1949,7.4319 C33.2009,7.7169 33.2779,7.9839 33.4249,8.2299 C33.5129,8.3779 33.6259,8.5189 33.7649,8.6519 C34.1339,9.0089 34.5259,9.1639 34.9369,9.1179 C35.1729,9.0919 35.3979,9.0029 35.6129,8.8499 C35.7419,8.7569 35.8689,8.6409 35.9899,8.5019 C36.0199,8.4679 36.0489,8.4329 36.0779,8.3969 C36.4269,7.9619 36.5939,7.5159 36.5829,7.0609 C36.5709,6.6049 36.3809,6.1999 36.0099,5.8439 L35.9899,5.8249 C35.8669,5.7079 35.7399,5.6139 35.6129,5.5419 C35.3629,5.4029 35.1039,5.3489 34.8369,5.3799 C34.4239,5.4279 34.0449,5.6689 33.6979,6.1029 C33.5889,6.2389 33.4979,6.3759 33.4249,6.5149 C33.2659,6.8139 33.1899,7.1209 33.1949,7.4319 M33.9519,7.5629 C33.9599,7.4399 33.9919,7.3099 34.0499,7.1719 C34.1069,7.0329 34.2019,6.8819 34.3339,6.7169 C34.4629,6.5559 34.5889,6.4339 34.7129,6.3459 C34.8369,6.2609 34.9529,6.2079 35.0589,6.1859 C35.1769,6.1659 35.2789,6.1699 35.3639,6.1999 C35.4499,6.2289 35.5299,6.2809 35.6059,6.3549 L35.6129,6.3609 C35.6809,6.4279 35.7349,6.5089 35.7739,6.6019 C35.8149,6.6969 35.8319,6.8079 35.8269,6.9319 C35.8189,7.0539 35.7859,7.1849 35.7259,7.3269 C35.6959,7.3969 35.6579,7.4689 35.6129,7.5439 C35.5649,7.6199 35.5079,7.6999 35.4429,7.7809 C35.3079,7.9499 35.1849,8.0729 35.0709,8.1499 C34.9599,8.2259 34.8449,8.2789 34.7299,8.3069 C34.6239,8.3309 34.5219,8.3289 34.4259,8.2979 C34.3299,8.2649 34.2449,8.2149 34.1729,8.1459 C34.1019,8.0769 34.0459,7.9929 34.0039,7.8959 C33.9619,7.7999 33.9449,7.6879 33.9519,7.5629" id="Fill-19"></path>
                <path d="M37.1201,12.7833 L37.4771,13.5983 L37.9041,13.5263 L38.1671,13.4823 L38.6121,14.4973 L38.1001,15.0183 L38.4681,15.8543 L39.7711,14.4513 L40.9321,13.2033 L40.5431,12.3173 L39.7711,12.4223 L37.9041,12.6773 L37.1201,12.7833 Z M39.7711,13.2133 L39.8951,13.1933 L39.7711,13.3193 L39.0691,14.0363 L38.7781,13.3773 L39.7711,13.2133 Z" id="Fill-21"></path>
                <g id="Group-26" transform="translate(23.000000, 0.047000)">
                    <path d="M12.99,15.9283 C12.872,15.6353 12.746,15.3473 12.613,15.0623 C12.096,13.9703 11.457,12.9463 10.715,12.0083 L10.715,31.5673 C11.457,30.6303 12.096,29.6073 12.613,28.5143 C12.746,28.2303 12.872,27.9413 12.99,27.6493 C13.606,26.1153 13.987,24.4603 14.09,22.7323 C14.107,22.4193 14.117,22.1043 14.117,21.7883 C14.117,21.4703 14.107,21.1553 14.09,20.8433 C13.987,19.1153 13.606,17.4623 12.99,15.9283" id="Fill-22"></path>
                    <path d="M0.4737,3.69 C0.5757,3.709 0.6807,3.707 0.7917,3.683 C0.9017,3.658 0.9987,3.615 1.0797,3.552 C1.1337,3.51 1.1937,3.45 1.2587,3.373 C1.3247,3.296 1.3947,3.185 1.4677,3.043 C1.5367,2.91 1.6067,2.734 1.6777,2.517 C1.7487,2.3 1.8167,2.039 1.8807,1.732 C1.9027,1.626 1.9257,1.513 1.9497,1.395 C1.9747,1.277 1.9997,1.147 2.0267,1.012 L2.8407,1.165 L2.3917,4.027 L3.2017,4.179 L3.7547,0.643 L1.3787,0.195 C1.3247,0.489 1.2827,0.715 1.2577,0.869 C1.2307,1.023 1.1967,1.198 1.1587,1.391 C1.0717,1.813 0.9917,2.133 0.9187,2.352 C0.8447,2.571 0.7487,2.724 0.6277,2.811 C0.5937,2.837 0.5477,2.85 0.4897,2.852 C0.4317,2.854 0.3837,2.852 0.3487,2.845 C0.3267,2.84 0.3087,2.837 0.2957,2.832 C0.2817,2.829 0.2677,2.823 0.2547,2.82 L0.2237,2.814 L0.1007,3.595 C0.1227,3.602 0.1737,3.617 0.2517,3.638 C0.3327,3.66 0.4067,3.677 0.4737,3.69" id="Fill-24"></path>
                </g>
                <polygon id="Fill-27" points="9.1338 6.3236 9.2188 8.4716 9.9608 7.8956 9.8818 6.5536 10.2948 6.7526 10.9968 7.0916 11.7118 6.5366 11.7748 6.4886 11.7118 6.4596 10.2948 5.8146 9.9398 5.6546 9.8588 3.5796 9.1148 4.1566 9.1908 5.4236 8.1418 4.9116 8.1098 4.9366 7.3658 5.5156 8.1098 5.8546"></polygon>
                <g id="Group-32" transform="translate(29.000000, 2.047000)">
                    <path d="M0.784,2.799 L0.722,2.76 L0.042,4.075 L0.699,4.482 L0.784,4.317 L1.073,3.755 L1.801,4.207 L2.662,4.743 L2.287,5.47 L2.942,5.878 L2.966,5.833 L3.621,4.564 L3.351,4.396 L3.745,3.633 L4.424,2.317 L4.654,1.872 L4.424,1.729 L3.745,1.306 L2.966,0.821 L2.649,0.624 C2.388,1.128 2.107,1.575 1.804,1.964 L1.801,1.968 C1.498,2.354 1.203,2.658 0.912,2.879 L0.784,2.799 Z M1.801,3.144 C1.971,2.993 2.144,2.815 2.318,2.608 C2.545,2.341 2.761,2.042 2.966,1.708 L3.01,1.636 L3.633,2.023 L2.966,3.315 L2.637,3.953 L1.801,3.431 L1.602,3.308 C1.668,3.257 1.734,3.203 1.801,3.144 Z" id="Fill-28"></path>
                    <path d="M6.6126,8.0422 L6.3966,8.2212 L6.6126,8.5342 L6.9896,9.0822 L7.1856,9.3662 C7.3226,9.5652 7.4516,9.7152 7.5736,9.8172 C7.6936,9.9192 7.8316,9.9912 7.9816,10.0342 C8.0166,10.0452 8.0526,10.0532 8.0896,10.0592 C8.1826,10.0732 8.2776,10.0702 8.3746,10.0502 C8.5106,10.0222 8.6426,9.9542 8.7716,9.8472 C8.8206,9.8052 8.8656,9.7622 8.9036,9.7172 C9.0026,9.6022 9.0616,9.4752 9.0846,9.3362 C9.1156,9.1442 9.0876,8.9442 9.0006,8.7392 L9.0136,8.7272 C9.1436,8.8122 9.2846,8.8482 9.4316,8.8352 C9.5786,8.8222 9.7166,8.7632 9.8436,8.6582 C9.9536,8.5662 10.0326,8.4612 10.0816,8.3402 C10.1306,8.2202 10.1446,8.0882 10.1246,7.9432 C10.1066,7.8102 10.0666,7.6832 10.0066,7.5622 C9.9476,7.4422 9.8446,7.2762 9.6986,7.0672 L9.0026,6.0562 L8.9036,6.1382 L8.0896,6.8152 L6.9896,7.7282 L6.6126,8.0422 Z M8.9036,7.2632 L9.0176,7.1682 L9.0526,7.2182 C9.1406,7.3472 9.2056,7.4432 9.2496,7.5102 C9.2916,7.5762 9.3196,7.6402 9.3336,7.7022 C9.3476,7.7692 9.3416,7.8332 9.3136,7.8932 C9.2866,7.9542 9.2506,8.0022 9.2096,8.0372 C9.1516,8.0832 9.0936,8.1142 9.0356,8.1292 C8.9936,8.1402 8.9496,8.1362 8.9036,8.1182 C8.8866,8.1122 8.8696,8.1042 8.8526,8.0942 C8.7946,8.0602 8.7466,8.0192 8.7096,7.9722 C8.6736,7.9252 8.6126,7.8392 8.5276,7.7162 L8.4666,7.6262 L8.9036,7.2632 Z M8.0196,7.9972 L8.0896,8.0982 L8.1106,8.1302 C8.1986,8.2582 8.2686,8.3602 8.3196,8.4382 C8.3706,8.5152 8.4026,8.5832 8.4176,8.6382 C8.4446,8.7312 8.4466,8.8122 8.4256,8.8862 C8.4056,8.9602 8.3546,9.0302 8.2736,9.0972 C8.2166,9.1452 8.1546,9.1772 8.0896,9.1892 L8.0736,9.1922 C8.0036,9.2022 7.9346,9.1882 7.8616,9.1422 C7.7816,9.0922 7.7156,9.0332 7.6636,8.9632 C7.6126,8.8932 7.5216,8.7642 7.3936,8.5772 L7.3666,8.5392 L8.0196,7.9972 Z" id="Fill-30"></path>
                </g>
                <polygon id="Fill-33" points="8.1098 9.2526 8.2988 9.4426 8.8528 8.7776 8.1098 8.0326 6.4368 6.3586 6.4148 6.3856 5.8838 7.0246 6.4148 7.5566"></polygon>
                <path d="M27.0315,39.1959 L26.2355,39.4159 L26.5565,40.8199 L26.3555,40.8759 L25.1855,39.7049 L24.2355,39.9669 L25.7465,41.4499 C25.7105,41.4879 25.6765,41.5519 25.6455,41.6419 C25.6135,41.7309 25.5855,41.8559 25.5635,42.0179 C25.5375,42.2209 25.4965,42.3619 25.4425,42.4429 C25.3885,42.5219 25.3175,42.5749 25.2265,42.5999 L25.0435,42.6509 L25.2135,43.3949 C25.2395,43.3879 25.2755,43.3799 25.3225,43.3699 C25.3695,43.3579 25.4305,43.3439 25.4995,43.3249 C25.7185,43.2639 25.8825,43.1719 25.9955,43.0449 C26.1065,42.9189 26.1855,42.7389 26.2305,42.5029 C26.2405,42.4409 26.2545,42.3669 26.2685,42.2829 C26.2835,42.1999 26.2965,42.1269 26.3085,42.0669 C26.3505,41.8579 26.3975,41.7179 26.4465,41.6449 C26.4965,41.5739 26.5815,41.5179 26.7055,41.4769 L27.0295,42.8969 L27.7465,42.6989 L27.8255,42.6769 L27.7465,42.3319 L27.0315,39.1959 Z" id="Fill-34"></path>
                <polygon id="Fill-36" points="29.7838 38.2138 29.6998 37.9988 27.7468 38.9178 27.6678 38.9558 27.7468 39.1568 27.9138 39.5848 29.1948 38.9798 29.5208 39.8138 28.3398 40.3698 28.5868 40.9978 29.7658 40.4438 29.7838 40.4878 29.9928 41.0208 29.7838 41.1188 28.7118 41.6228 28.9568 42.2518 29.7838 41.8638 30.8008 41.3838 30.9878 41.2958 30.8008 40.8158"></polygon>
                <polygon id="Fill-37" points="42.2174 25.8828 42.3104 25.4618 42.4074 25.0218 42.3104 24.9948 39.7704 24.3198 39.2314 24.1758 39.0514 24.9868 39.7704 25.7448 40.8484 26.8818 39.7704 26.5958 38.7574 26.3258 38.5664 27.1888 39.7704 27.5088 41.7424 28.0318 41.9434 27.1228 40.3254 25.3798"></polygon>
                <g id="Group-42" transform="translate(30.000000, 29.047000)">
                    <path d="M9.5255,2.2181 L9.4915,2.2781 C9.4935,2.3131 9.4935,2.3641 9.4975,2.4331 C9.4995,2.5031 9.4955,2.5821 9.4845,2.6721 C9.4715,2.7611 9.4545,2.8461 9.4335,2.9271 C9.4115,3.0081 9.3785,3.0871 9.3355,3.1651 C9.2495,3.3171 9.1485,3.4111 9.0315,3.4501 C8.9155,3.4871 8.7925,3.4631 8.6625,3.3751 C8.5485,3.2971 8.4555,3.1871 8.3855,3.0481 C8.3145,2.9081 8.2485,2.7151 8.1895,2.4681 C8.1455,2.2791 8.1035,2.0681 8.0675,1.8341 C8.0305,1.6001 7.9955,1.3421 7.9675,1.0591 L7.9035,1.0161 L7.5125,0.7501 L7.0895,1.5031 L6.2495,2.9941 L6.7765,3.3501 L7.0895,2.7931 L7.5035,2.0561 C7.5105,2.1331 7.5245,2.2581 7.5455,2.4331 C7.5675,2.6081 7.5975,2.7941 7.6405,2.9931 C7.7075,3.3061 7.7965,3.5601 7.9035,3.7511 L7.9085,3.7591 C8.0185,3.9501 8.1555,4.1021 8.3205,4.2131 C8.5865,4.3941 8.8445,4.4401 9.0975,4.3531 C9.3455,4.2681 9.5695,4.0501 9.7705,3.6981 L9.7815,3.6811 C9.8765,3.5101 9.9555,3.3211 10.0195,3.1111 C10.0835,2.9011 10.1215,2.7411 10.1315,2.6301 L9.7705,2.3851 L9.5255,2.2181 Z" id="Fill-38"></path>
                    <path d="M2.7451,7.6688 L2.4391,7.1408 L1.9661,7.4718 L1.3351,7.9118 C1.1441,8.0448 0.9971,8.1748 0.8951,8.2988 C0.8601,8.3408 0.8291,8.3848 0.8011,8.4308 C0.7431,8.5218 0.6981,8.6218 0.6631,8.7278 C0.6191,8.8648 0.6041,9.0068 0.6181,9.1578 C0.6331,9.3078 0.6841,9.4578 0.7701,9.6078 C0.7791,9.6248 0.7911,9.6418 0.8011,9.6578 C0.9141,9.8348 1.0501,9.9468 1.2081,9.9918 C1.3811,10.0418 1.5631,10.0268 1.7581,9.9468 L1.7671,9.9628 C1.6801,10.1008 1.6361,10.2498 1.6361,10.4118 C1.6351,10.5738 1.6771,10.7288 1.7631,10.8778 C1.8211,10.9778 1.8881,11.0578 1.9661,11.1188 C1.9871,11.1348 2.0091,11.1508 2.0321,11.1638 C2.1371,11.2268 2.2571,11.2528 2.3901,11.2428 C2.5121,11.2338 2.6301,11.1998 2.7441,11.1438 L2.7451,11.1428 C2.8581,11.0888 3.0181,10.9888 3.2191,10.8488 L3.4241,10.7048 L4.1931,10.1678 L3.4241,8.8418 L2.7451,7.6688 Z M2.0861,9.2278 C2.0431,9.2568 2.0021,9.2788 1.9661,9.2958 C1.9401,9.3058 1.9171,9.3138 1.8961,9.3198 C1.8121,9.3408 1.7361,9.3368 1.6711,9.3078 C1.6051,9.2798 1.5451,9.2178 1.4921,9.1248 C1.4501,9.0518 1.4251,8.9758 1.4221,8.8978 C1.4171,8.8198 1.4371,8.7448 1.4831,8.6708 C1.5351,8.5858 1.5951,8.5198 1.6631,8.4688 C1.7211,8.4238 1.8231,8.3518 1.9661,8.2508 L2.0341,8.2028 L2.0711,8.1768 L2.5111,8.9358 L2.3831,9.0248 C2.2601,9.1108 2.1611,9.1788 2.0861,9.2278 Z M3.1341,10.1278 C3.0121,10.2138 2.9171,10.2768 2.8541,10.3188 C2.8171,10.3438 2.7801,10.3628 2.7451,10.3768 C2.7191,10.3868 2.6951,10.3928 2.6721,10.3968 C2.6101,10.4088 2.5521,10.3948 2.5001,10.3598 C2.4481,10.3238 2.4061,10.2818 2.3791,10.2328 C2.3391,10.1678 2.3171,10.1018 2.3091,10.0358 C2.3011,9.9708 2.3171,9.9048 2.3551,9.8378 C2.3911,9.7768 2.4321,9.7288 2.4781,9.6918 C2.5241,9.6568 2.6061,9.5968 2.7241,9.5148 L2.7451,9.5008 L2.8121,9.4538 L3.1831,10.0938 L3.1341,10.1278 Z" id="Fill-40"></path>
                </g>
                <polygon id="Fill-43" points="4.6328 15.1567 4.9698 14.4797 5.0258 14.3657 4.9698 14.3327 3.7548 13.6027 4.2918 12.5257 4.9698 12.9337 5.5618 13.2887 5.7038 13.0057 5.9548 12.4987 5.7038 12.3477 4.9698 11.9077 3.0878 10.7777 3.0468 10.8597 2.6948 11.5687 3.0468 11.7797 3.7438 12.1977 3.2088 13.2737 3.0468 13.1767 2.1578 12.6447 1.7648 13.4357 3.0468 14.2047"></polygon>
                <g id="Group-54" transform="translate(0.000000, 8.047000)">
                    <path d="M1.6979,10.1591 C1.8189,10.1881 1.9289,10.1951 2.0309,10.1801 C2.1579,10.1621 2.2739,10.1171 2.3779,10.0441 C2.4789,9.9701 2.5659,9.8751 2.6359,9.7581 C2.7049,9.6411 2.7589,9.5091 2.7999,9.3611 C2.8509,9.1671 2.8839,9.0071 2.8989,8.8801 C2.9129,8.7561 2.9259,8.6051 2.9369,8.4311 L3.0469,8.4671 L4.0959,8.8061 L4.3289,7.9401 L3.0469,7.5261 L1.6979,7.0911 L1.1929,6.9281 L0.9609,7.7921 L1.6979,8.0301 L2.3899,8.2541 C2.3849,8.3131 2.3749,8.3901 2.3569,8.4841 C2.3389,8.5771 2.3239,8.6511 2.3089,8.7051 C2.2679,8.8561 2.2209,8.9691 2.1649,9.0421 C2.1119,9.1151 2.0449,9.1661 1.9699,9.1911 C1.8849,9.2191 1.8039,9.2261 1.7259,9.2121 L1.6979,9.2061 C1.6229,9.1901 1.5269,9.1631 1.4099,9.1261 L0.6669,8.8861 L0.4349,9.7551 L1.5919,10.1301 C1.6289,10.1411 1.6639,10.1511 1.6979,10.1591" id="Fill-44"></path>
                    <path d="M2.5384,13.0395 C2.5944,13.0765 2.6314,13.1435 2.6494,13.2405 C2.6664,13.3375 2.6724,13.4405 2.6634,13.5475 C2.6604,13.5855 2.6574,13.6255 2.6504,13.6705 C2.6444,13.7145 2.6374,13.7555 2.6324,13.7935 C2.6254,13.8405 2.6184,13.8775 2.6114,13.9075 C2.6044,13.9375 2.5994,13.9605 2.5954,13.9745 L2.5914,14.0295 L3.0464,14.0685 L3.2834,14.0895 C3.2904,14.0395 3.3034,13.9425 3.3174,13.7955 C3.3324,13.6495 3.3434,13.5205 3.3514,13.4105 C3.3594,13.3055 3.3584,13.2035 3.3494,13.1055 C3.3414,13.0085 3.3174,12.9105 3.2804,12.8105 C3.2404,12.7105 3.1814,12.6125 3.0994,12.5175 C3.0834,12.4995 3.0654,12.4795 3.0464,12.4615 C2.9714,12.3885 2.8754,12.3175 2.7584,12.2505 L1.6974,11.6535 L0.2374,10.8325 L0.1704,11.7675 L1.6514,12.5465 L0.0684,13.1825 L0.0004,14.1525 L1.6974,13.4085 L2.5384,13.0395 Z" id="Fill-46"></path>
                    <path d="M5.7037,2.9869 L6.3987,3.6839 L6.4147,3.6639 L7.2737,2.6309 C7.4137,2.4609 7.5187,2.3019 7.5857,2.1529 C7.6537,2.0039 7.6907,1.8409 7.7027,1.6649 C7.7107,1.5159 7.6857,1.3679 7.6267,1.2189 C7.5687,1.0709 7.4817,0.9379 7.3627,0.8199 C7.2457,0.7029 7.1227,0.6169 6.9897,0.5599 C6.8577,0.5039 6.7207,0.4879 6.5787,0.5149 C6.5227,0.5259 6.4677,0.5409 6.4147,0.5619 C6.3217,0.5979 6.2337,0.6499 6.1537,0.7179 C6.0297,0.8239 5.9037,0.9549 5.7737,1.1099 L5.7037,1.1949 L5.4427,1.5089 L4.9697,1.0359 L4.5357,0.6009 L3.9837,1.2649 L4.9697,2.2519 L5.7037,2.9869 Z M6.1367,1.6559 C6.2187,1.5569 6.2907,1.4899 6.3547,1.4499 C6.3747,1.4379 6.3957,1.4269 6.4147,1.4179 C6.4567,1.3999 6.4957,1.3899 6.5347,1.3889 C6.5907,1.3879 6.6407,1.3999 6.6847,1.4249 C6.7287,1.4529 6.7687,1.4849 6.8097,1.5249 C6.9097,1.6239 6.9517,1.7409 6.9397,1.8719 C6.9267,2.0029 6.8637,2.1369 6.7517,2.2719 L6.5027,2.5719 L6.4147,2.4829 L5.8887,1.9559 L6.1367,1.6559 Z" id="Fill-48"></path>
                    <path d="M12.4881,29.79 C12.2201,29.64 11.9611,29.565 11.7121,29.565 C11.5531,29.564 11.3981,29.594 11.2471,29.654 C10.8571,29.809 10.5431,30.144 10.3021,30.661 L10.2951,30.676 C10.0611,31.186 9.9991,31.659 10.1121,32.092 C10.1521,32.249 10.2131,32.393 10.2951,32.526 C10.4421,32.763 10.6561,32.96 10.9381,33.117 C11.2041,33.268 11.4631,33.344 11.7121,33.344 C11.8721,33.344 12.0281,33.313 12.1801,33.251 C12.5681,33.093 12.8831,32.758 13.1221,32.244 C13.3601,31.734 13.4221,31.26 13.3111,30.819 C13.2011,30.38 12.9271,30.036 12.4881,29.79 M12.5431,31.302 C12.5171,31.452 12.4591,31.624 12.3671,31.821 C12.2791,32.011 12.1841,32.164 12.0831,32.28 C11.9831,32.397 11.8831,32.48 11.7841,32.529 C11.7601,32.54 11.7351,32.551 11.7121,32.56 C11.6291,32.59 11.5551,32.604 11.4851,32.598 C11.3971,32.592 11.3061,32.565 11.2161,32.514 C11.1311,32.466 11.0581,32.401 10.9981,32.319 C10.9371,32.238 10.8961,32.135 10.8731,32.013 C10.8521,31.893 10.8561,31.757 10.8831,31.602 C10.9091,31.448 10.9671,31.277 11.0561,31.087 C11.1491,30.886 11.2411,30.734 11.3331,30.629 C11.4231,30.524 11.5231,30.443 11.6281,30.386 C11.6561,30.37 11.6841,30.358 11.7121,30.348 C11.7821,30.321 11.8551,30.31 11.9261,30.313 C12.0261,30.317 12.1181,30.343 12.2051,30.392 C12.2891,30.44 12.3631,30.504 12.4241,30.587 C12.4861,30.67 12.5281,30.774 12.5491,30.896 C12.5701,31.018 12.5681,31.154 12.5431,31.302" id="Fill-50"></path>
                    <path d="M7.3708,26.675 L7.5108,26.862 L8.1098,26.326 L8.5768,25.906 L8.1098,25.278 L8.1008,25.266 L7.5108,25.795 L6.4148,24.321 L6.3568,24.241 L6.4148,24.189 L6.9468,23.713 L6.4698,23.072 L6.4148,23.121 L5.7038,23.759 L5.4038,24.028 L5.5998,24.292 L4.9698,24.855 L3.5528,26.125 L4.9698,28.033 L5.0098,28.086 C5.2408,27.878 5.4718,27.691 5.7038,27.524 C5.8818,27.395 6.0608,27.279 6.2398,27.174 C6.2988,27.139 6.3568,27.105 6.4148,27.073 C6.7588,26.885 7.0768,26.752 7.3708,26.675 M5.9718,26.368 C5.8828,26.416 5.7938,26.466 5.7038,26.52 C5.4718,26.659 5.2398,26.819 5.0068,27 L4.9698,26.95 L4.5548,26.391 L4.9698,26.019 L5.7038,25.361 L6.1188,24.989 L6.4148,25.387 L6.8718,26.001 C6.7248,26.04 6.5728,26.092 6.4148,26.158 C6.2718,26.217 6.1248,26.287 5.9718,26.368" id="Fill-52"></path>
                </g>
                <polygon id="Fill-55" points="10.5332 36.727 10.2952 36.518 9.8922 36.164 8.9862 37.405 8.1142 36.639 9.0202 35.398 8.3792 34.835 8.1102 35.205 6.4152 37.529 6.3362 37.636 6.4152 37.705 6.9772 38.2 7.7252 37.174 8.1102 37.511 8.5972 37.939 8.1102 38.609 7.8502 38.965 8.1102 39.193 8.4912 39.528 10.2952 37.053"></polygon>
                <polygon id="Fill-56" points="3.0465 26.7991 1.6975 27.3391 0.7205 27.7311 1.0005 28.5771 1.6975 28.2981 2.1255 28.1271 2.5075 29.2791 1.6975 29.6031 1.3855 29.7291 1.6655 30.5751 1.6975 30.5641 3.0465 30.0221 4.7365 29.3461 4.4545 28.4991 3.0945 29.0441 3.0465 28.9011 2.7105 27.8931 3.0465 27.7581 4.0715 27.3481 3.7905 26.5001"></polygon>
                <path d="M3.0465,22.7419 L1.6985,23.4679 L0.1595,24.2959 L0.2745,25.2709 L1.6985,25.5809 L3.0465,25.8739 L3.6595,26.0079 L3.5535,25.1119 L3.0465,25.0179 L2.8635,24.9849 L2.7315,23.8669 L3.0465,23.7089 L3.3665,23.5489 L3.2575,22.6289 L3.0465,22.7419 Z M1.6985,24.7689 L1.1425,24.6629 L1.6985,24.3839 L2.1675,24.1469 L2.2525,24.8729 L1.6985,24.7689 Z" id="Fill-57"></path>
                <g id="Group-68" transform="translate(5.000000, 6.047000)">
                    <path d="M23.2292,30.2313 C23.9232,29.8863 24.5882,29.4923 25.2182,29.0533 C25.4632,28.8823 25.7032,28.7053 25.9382,28.5223 L24.8702,2.8893 C24.6212,2.7263 24.3672,2.5703 24.1092,2.4203 C23.4442,2.0353 22.7482,1.6973 22.0282,1.4093 C20.9842,0.9933 19.8872,0.6853 18.7502,0.5003 C19.8292,1.4973 20.9332,3.3113 21.1692,6.6133 C21.5062,11.3333 17.8902,17.3353 15.7232,21.7893 C14.7572,23.7743 14.0782,25.4513 14.1662,26.5703 C14.2622,27.7813 15.0212,28.6973 16.0392,29.3873 C17.5372,30.4033 19.5922,30.9273 20.9092,31.1653 C21.7122,30.9133 22.4882,30.6003 23.2292,30.2313" id="Fill-58"></path>
                    <path d="M37.9205,19.7154 C38.0025,19.6624 38.1235,19.6514 38.2815,19.6824 L38.4175,18.9084 C38.1625,18.8534 37.9395,18.9124 37.7455,19.0834 C37.5725,19.2364 37.4485,19.4854 37.3715,19.8304 C37.3615,19.8734 37.3525,19.9184 37.3435,19.9654 C37.2685,20.3914 37.2905,20.7214 37.4095,20.9594 L37.4195,20.9774 C37.5395,21.2034 37.7245,21.3444 37.9755,21.4024 L38.1135,20.6274 C37.9585,20.5914 37.8515,20.5294 37.7925,20.4444 C37.7325,20.3584 37.7185,20.2294 37.7485,20.0564 C37.7795,19.8834 37.8365,19.7704 37.9205,19.7154" id="Fill-60"></path>
                    <path d="M11.9722,34.3298 L12.0502,33.9518 L11.8092,33.8898 L11.2542,33.7478 L11.1752,34.1248 C10.9792,34.0938 10.7942,34.0898 10.6212,34.1118 C10.4222,34.1378 10.2412,34.1978 10.0762,34.2928 C9.7652,34.4698 9.5662,34.7708 9.4812,35.1918 C9.3922,35.6198 9.4542,35.9858 9.6642,36.2888 C9.8752,36.5918 10.1852,36.8148 10.5952,36.9528 L10.5232,37.3048 L10.7562,37.3648 L11.3202,37.5098 L11.3922,37.1568 C11.5912,37.1878 11.7762,37.1948 11.9462,37.1768 C12.1512,37.1548 12.3372,37.0978 12.5012,37.0058 C12.8022,36.8348 12.9962,36.5378 13.0842,36.1128 C13.1712,35.6848 13.1102,35.3168 12.9002,35.0098 C12.6892,34.7018 12.3802,34.4738 11.9722,34.3298 Z M10.7162,36.3688 L10.7152,36.3688 C10.5422,36.2858 10.4182,36.1618 10.3432,35.9958 C10.2702,35.8298 10.2562,35.6358 10.3002,35.4148 C10.3502,35.1748 10.4332,34.9958 10.5512,34.8788 C10.5802,34.8478 10.6142,34.8218 10.6502,34.8008 C10.7562,34.7358 10.8912,34.7048 11.0562,34.7078 L10.7162,36.3688 Z M12.2582,35.9158 C12.2142,36.1358 12.1272,36.3008 11.9992,36.4158 C11.9742,36.4398 11.9452,36.4598 11.9172,36.4778 C11.8042,36.5498 11.6692,36.5818 11.5122,36.5728 L11.8522,34.9188 L11.8542,34.9118 C12.0462,35.0088 12.1732,35.1418 12.2362,35.3088 C12.3002,35.4748 12.3072,35.6778 12.2582,35.9158 Z" id="Fill-62"></path>
                    <path d="M32.9228,27.8768 L32.5048,28.4358 L32.4868,28.4588 L31.3628,27.4418 L31.1488,27.2478 L31.3438,26.9878 L31.5848,26.6658 L31.3208,26.4268 L31.1418,26.2668 L30.9468,26.5278 L29.7758,28.0908 L30.2178,28.4908 L30.6448,27.9208 L31.0188,28.2588 L31.4118,28.6148 L32.5558,29.6498 L32.7408,29.8178 L33.1938,29.2138 C33.1288,29.1468 33.0878,29.0778 33.0648,29.0028 C33.0438,28.9288 33.0418,28.8488 33.0598,28.7658 C33.0748,28.6938 33.1088,28.6128 33.1618,28.5188 C33.2068,28.4358 33.2588,28.3568 33.3138,28.2808 L33.3358,28.2498 L33.3118,28.2278 L32.9228,27.8768 Z" id="Fill-64"></path>
                    <path d="M11.1855,20.6348 C12.5065,18.1348 14.2895,15.3808 15.5985,12.7178 C16.6205,10.6398 17.3535,8.6178 17.3535,6.8158 C17.3535,4.7998 16.6015,3.4898 15.5985,2.6378 C14.1405,1.3998 12.1565,1.1318 11.1855,1.0778 C10.8235,1.0568 10.6015,1.0658 10.6015,1.0658 L10.5715,1.0478 C10.3755,1.1228 10.1795,1.2028 9.9885,1.2868 C8.8165,1.7948 7.7165,2.4398 6.7115,3.2018 C6.2155,3.5778 5.7425,3.9838 5.2955,4.4148 C4.4765,5.2018 3.7435,6.0758 3.1095,7.0228 C2.4205,8.0528 1.8485,9.1678 1.4155,10.3488 C1.1065,11.1898 0.8665,12.0658 0.7045,12.9658 C0.5385,13.8818 0.4515,14.8248 0.4515,15.7878 C0.4515,16.7508 0.5385,17.6918 0.7045,18.6068 C0.8665,19.5078 1.1065,20.3828 1.4155,21.2228 C1.8485,22.4038 2.4205,23.5188 3.1095,24.5478 C3.7435,25.4928 4.4765,26.3668 5.2955,27.1528 C5.7425,27.5838 6.2155,27.9878 6.7115,28.3638 C7.7165,29.1258 8.8165,29.7718 9.9885,30.2788 C10.1675,30.3568 10.3475,30.4308 10.5305,30.5018 C10.3465,30.2398 10.1575,29.8978 9.9885,29.4498 C9.7025,28.6958 9.4675,27.6428 9.3845,26.1718 C9.3345,25.2938 9.5715,24.2908 9.9885,23.2018 C10.2995,22.3888 10.7135,21.5288 11.1855,20.6348" id="Fill-66"></path>
                </g>
                <polygon id="Fill-69" points="142.3593 51.5482 146.2553 73.6272 150.1523 51.5482 159.0403 51.5482 159.0403 85.5372 153.8453 85.5372 153.8453 54.7502 153.8053 54.7502 148.2443 85.5372 144.2663 85.5372 138.7063 54.7972 138.6663 54.7972 138.6663 85.5372 133.4703 85.5372 133.4703 51.5482"></polygon>
                <path d="M162.3566,68.6638 L162.3566,67.4588 C162.3566,63.5748 165.4406,60.5398 169.7836,60.5398 C174.0856,60.5398 177.4546,62.3698 177.4546,66.7888 L177.4546,81.9658 C177.4546,83.6178 177.5366,84.6898 178.1036,85.5368 L172.8686,85.5368 C172.5436,85.0018 172.4626,83.8408 172.4626,83.2158 C171.4886,85.0908 170.3116,86.2518 167.6326,86.2518 C164.3446,86.2518 161.9506,84.1088 161.9506,79.5108 C161.9506,75.2698 163.7356,73.2168 167.5926,71.4308 C170.0266,70.3158 172.2186,69.2438 172.2186,67.1908 C172.2186,65.7178 171.3666,65.0478 169.8246,65.0478 C168.4036,65.0478 167.2266,65.9848 167.2266,68.1728 L167.2266,68.6638 L162.3566,68.6638 Z M168.9306,75.2698 C167.6736,76.1628 167.2266,77.6358 167.2266,78.7518 C167.2266,80.5828 167.8356,82.0998 169.4186,82.0998 C170.9606,82.0998 172.2186,81.0738 172.2186,78.8858 L172.2186,72.9488 L168.9306,75.2698 Z" id="Fill-70"></path>
                <polygon id="Fill-72" points="185.6545 81.2071 190.4435 81.2071 190.4435 61.1641 195.3145 61.1641 195.3145 81.2071 200.1035 81.2071 200.1035 61.1641 204.9735 61.1641 204.9735 85.5371 180.7845 85.5371 180.7845 61.1641 185.6545 61.1641"></polygon>
                <polygon id="Fill-73" points="213.1284 61.1641 213.1284 75.7161 218.4864 61.1641 223.3164 61.1641 223.3164 85.5371 218.4454 85.5371 218.4454 71.1631 213.1284 85.5371 208.2584 85.5371 208.2584 61.1641"></polygon>
                <polygon id="Fill-74" points="231.4879 70.449 236.2769 70.449 236.2769 61.164 241.2689 61.164 241.2689 85.537 236.2769 85.537 236.2769 74.779 231.4879 74.779 231.4879 85.537 226.4949 85.537 226.4949 61.164 231.4879 61.164"></polygon>
                <path d="M249.4408,70.449 L252.6478,70.449 C255.8948,70.449 259.3448,72.859 259.3448,77.949 C259.3448,83.082 255.8128,85.537 252.6478,85.537 L244.4488,85.537 L244.4488,61.164 L249.4408,61.164 L249.4408,70.449 Z M249.4408,81.207 L251.0648,81.207 C252.6878,81.207 254.1488,80.671 254.1488,77.949 C254.1488,75.538 252.7288,74.779 251.0648,74.779 L249.4408,74.779 L249.4408,81.207 Z M262.5508,85.537 L267.5428,85.537 L267.5428,61.164 L262.5508,61.164 L262.5508,85.537 Z" id="Fill-75"></path>
                <polygon id="Fill-77" points="284.3446 61.1641 284.3446 75.7161 289.7016 61.1641 294.5316 61.1641 294.5316 85.5371 289.6616 85.5371 289.6616 71.1631 284.3446 85.5371 279.4736 85.5371 279.4736 61.1641"></polygon>
                <polygon id="Fill-78" points="316.4028 51.5482 320.2998 73.6272 324.1958 51.5482 333.0838 51.5482 333.0838 85.5372 327.8888 85.5372 327.8888 54.7502 327.8488 54.7502 322.2878 85.5372 318.3108 85.5372 312.7508 54.7972 312.7098 54.7972 312.7098 85.5372 307.5138 85.5372 307.5138 51.5482"></polygon>
                <path d="M341.0645,73.9313 L341.0645,79.2423 C341.0645,81.0283 342.0795,81.9213 343.7025,81.9213 C345.3265,81.9213 346.3415,80.9393 346.3415,79.2423 L346.3415,77.8593 L351.3335,77.8593 L351.3335,78.5283 C351.3335,84.0193 348.1265,86.2513 343.7025,86.2513 C339.2795,86.2513 336.0725,84.0643 336.0725,78.5283 L336.0725,68.2623 C336.0725,62.7273 339.2795,60.5393 343.7025,60.5393 C348.1265,60.5393 351.3335,62.7713 351.3335,68.2623 L351.3335,73.9313 L341.0645,73.9313 Z M346.3415,69.9143 L346.3415,67.5483 C346.3415,65.8513 345.3265,64.8693 343.7025,64.8693 C342.0795,64.8693 341.0645,65.7623 341.0645,67.5483 L341.0645,69.9143 L346.3415,69.9143 Z" id="Fill-79"></path>
                <polygon id="Fill-81" points="358.2635 61.1641 360.7795 67.9051 363.2955 61.1641 368.8155 61.1641 363.2955 73.3511 369.1005 85.5371 363.2955 85.5371 360.7795 78.5731 358.2635 85.5371 352.4595 85.5371 358.2635 73.3511 352.7435 61.1641"></polygon>
                <path d="M370.8102,68.6638 L370.8102,67.4588 C370.8102,63.5748 373.8942,60.5398 378.2372,60.5398 C382.5402,60.5398 385.9092,62.3698 385.9092,66.7888 L385.9092,81.9658 C385.9092,83.6178 385.9902,84.6898 386.5572,85.5368 L381.3222,85.5368 C380.9972,85.0018 380.9162,83.8408 380.9162,83.2158 C379.9422,85.0908 378.7652,86.2518 376.0862,86.2518 C372.7982,86.2518 370.4042,84.1088 370.4042,79.5108 C370.4042,75.2698 372.1902,73.2168 376.0462,71.4308 C378.4812,70.3158 380.6732,69.2438 380.6732,67.1908 C380.6732,65.7178 379.8202,65.0478 378.2782,65.0478 C376.8572,65.0478 375.6802,65.9848 375.6802,68.1728 L375.6802,68.6638 L370.8102,68.6638 Z M377.3852,75.2698 C376.1272,76.1628 375.6802,77.6358 375.6802,78.7518 C375.6802,80.5828 376.2892,82.0998 377.8722,82.0998 C379.4142,82.0998 380.6732,81.0738 380.6732,78.8858 L380.6732,72.9488 L377.3852,75.2698 Z" id="Fill-82"></path>
                <polygon id="Fill-84" points="394.2339 70.449 399.0229 70.449 399.0229 61.164 404.0149 61.164 404.0149 85.537 399.0229 85.537 399.0229 74.779 394.2339 74.779 394.2339 85.537 389.2409 85.537 389.2409 61.164 394.2339 61.164"></polygon>
                <polygon id="Fill-85" points="412.0662 61.1641 412.0662 75.7161 417.4232 61.1641 422.2532 61.1641 422.2532 85.5371 417.3832 85.5371 417.3832 71.1631 412.0662 85.5371 407.1952 85.5371 407.1952 61.1641"></polygon>
                <path d="M425.2703,68.619 C425.5143,63.128 428.8423,60.539 432.6573,60.539 C436.9593,60.539 440.0033,63.173 440.0033,67.191 C440.0033,70.048 438.5023,71.699 436.4723,72.548 C438.9483,73.351 440.4903,75.493 440.4903,79.064 C440.4903,83.886 437.4873,86.251 432.8193,86.251 C428.8423,86.251 425.0263,84.198 425.0263,77.814 L429.8973,77.814 C429.8973,79.913 430.4253,81.921 432.4943,81.921 C434.6053,81.921 435.2953,80.582 435.2953,78.172 C435.2953,75.94 434.1993,74.779 432.4943,74.779 L431.3173,74.779 L431.3173,70.762 L432.3733,70.762 C434.3623,70.762 434.9703,69.601 434.9703,67.682 C434.9703,65.896 434.4023,64.87 432.6573,64.87 C430.8303,64.87 430.3443,66.387 430.1813,68.619 L425.2703,68.619 Z" id="Fill-86"></path>
                <polygon id="Fill-88" points="450.0992 61.1641 453.3862 77.4571 456.6732 61.1641 463.4122 61.1641 463.4122 85.5371 458.5402 85.5371 458.5402 68.2621 458.5002 68.2621 454.9692 85.5371 451.8032 85.5371 448.2732 68.2621 448.2322 68.2621 448.2322 85.5371 443.3612 85.5371 443.3612 61.1641"></polygon>
                <path d="M471.6068,70.449 L474.8138,70.449 C478.0598,70.449 481.5098,72.859 481.5098,77.949 C481.5098,83.082 477.9788,85.537 474.8138,85.537 L466.6138,85.537 L466.6138,61.164 L471.6068,61.164 L471.6068,70.449 Z M471.6068,81.207 L473.2298,81.207 C474.8538,81.207 476.3148,80.671 476.3148,77.949 C476.3148,75.538 474.8948,74.779 473.2298,74.779 L471.6068,74.779 L471.6068,81.207 Z M484.7158,85.537 L489.7088,85.537 L489.7088,61.164 L484.7158,61.164 L484.7158,85.537 Z" id="Fill-89"></path>
            </g>
        </g>
    </g>
</svg>